<svg width="24" height="24" viewBox="0 0 24 24" version="1.1" xmlns="http://www.w3.org/2000/svg" xmlns:xlink="http://www.w3.org/1999/xlink">
<title>Alarm</title>
<desc>Created using Figma</desc>
<g id="Canvas" transform="translate(-10090 -2801)">
<g id="Alarm">
<use xlink:href="#path0_fill" transform="translate(10090 2801)" fill="#FF0000"/>
</g>
</g>
<defs>
<path id="path0_fill" fill-rule="evenodd" d="M 12 24C 5.37256 24 0 18.6274 0 12C 0 5.37259 5.37256 0 12 0C 18.6274 0 24 5.37259 24 12C 24 18.6274 18.6274 24 12 24ZM 12.7302 17.2783C 12.9102 17.4638 13 17.7072 13 18.0087C 13 18.3102 12.9102 18.5507 12.7302 18.7304C 12.5503 18.9102 12.3069 19 12 19C 11.7036 19 11.4629 18.9102 11.2778 18.7304C 11.0925 18.5507 11 18.3102 11 18.0087C 11 17.7072 11.0898 17.4638 11.2698 17.2783C 11.4497 17.0927 11.6931 17 12 17C 12.3069 17 12.5503 17.0927 12.7302 17.2783ZM 13 5.95428C 13 5.63617 12.9043 5.39761 12.7129 5.23856C 12.5215 5.07953 12.2805 5 11.99 5C 11.6997 5 11.4622 5.07953 11.2773 5.23856C 11.0925 5.39761 11 5.63617 11 5.95428L 11 14.0258C 11 14.3439 11.0925 14.5858 11.2773 14.7515C 11.4622 14.9172 11.6997 15 11.99 15C 12.2805 15 12.5215 14.9172 12.7129 14.7515C 12.9043 14.5858 13 14.3439 13 14.0258L 13 5.95428Z"/>
</defs>
</svg>
