<svg width="47" height="47" viewBox="0 0 47 47" version="1.1" xmlns="http://www.w3.org/2000/svg" xmlns:xlink="http://www.w3.org/1999/xlink">
<title>bmw</title>
<desc>Created using Figma</desc>
<g id="Canvas" transform="translate(-7584 490)">
<g id="bmw">
<g id="g12">
<g id="g14 Clipped">
<mask id="mask0_outline" mask-type="alpha">
<g id="path18">
<use xlink:href="#path0_fill" transform="matrix(1 -1.22465e-16 -1.22465e-16 -1 7584.39 -443.789)" fill="#FFFFFF"/>
</g>
</mask>
<g id="g14" mask="url(#mask0_outline)">
<g id="g20">
<g id="g22">
<g id="path38">
<use xlink:href="#path1_fill" transform="matrix(1 -1.22465e-16 -1.22465e-16 -1 7584.39 -443.789)" fill="url(#paint1_linear)"/>
</g>
</g>
</g>
</g>
</g>
</g>
<g id="g40">
<g id="g42 Clipped">
<mask id="mask1_outline" mask-type="alpha">
<g id="path46">
<use xlink:href="#path2_fill" transform="matrix(1 -1.22465e-16 -1.22465e-16 -1 7582 -442)" fill="#FFFFFF"/>
</g>
</mask>
<g id="g42" mask="url(#mask1_outline)">
<g id="g48">
<g id="path50">
<use xlink:href="#path3_fill" transform="matrix(1 -1.22465e-16 -1.22465e-16 -1 7585.27 -444.398)" fill="#151113"/>
</g>
</g>
</g>
</g>
</g>
<g id="g52">
<g id="g54 Clipped">
<mask id="mask2_outline" mask-type="alpha">
<g id="path58">
<use xlink:href="#path4_fill" transform="matrix(1 -1.22465e-16 -1.22465e-16 -1 7585.37 -444.502)" fill="#FFFFFF"/>
</g>
</mask>
<g id="g54" mask="url(#mask2_outline)">
<g id="g60">
<g id="g62">
<g id="path70">
<use xlink:href="#path5_fill" transform="matrix(1 -1.22465e-16 -1.22465e-16 -1 7585.37 -444.502)" fill="url(#paint5_radial)"/>
</g>
</g>
</g>
</g>
</g>
</g>
<g id="g72">
<g id="g74 Clipped">
<mask id="mask3_outline" mask-type="alpha">
<g id="path78">
<use xlink:href="#path2_fill" transform="matrix(1 -1.22465e-16 -1.22465e-16 -1 7582 -442)" fill="#FFFFFF"/>
</g>
</mask>
<g id="g74" mask="url(#mask3_outline)">
<g id="g80">
<g id="path82">
<use xlink:href="#path6_fill" transform="matrix(1 -1.22465e-16 -1.22465e-16 -1 7592.68 -452.022)" fill="#151113"/>
</g>
</g>
<g id="g84">
<g id="path86">
<use xlink:href="#path7_fill" transform="matrix(1 -1.22465e-16 -1.22465e-16 -1 7593.06 -452.276)" fill="#A7A5A6"/>
</g>
</g>
</g>
</g>
</g>
<g id="g88">
<g id="g90 Clipped">
<mask id="mask4_outline" mask-type="alpha">
<g id="path94">
<use xlink:href="#path8_fill" transform="matrix(1 -1.22465e-16 -1.22465e-16 -1 7607.77 -466.95)" fill="#FFFFFF"/>
</g>
</mask>
<g id="g90" mask="url(#mask4_outline)">
<g id="g96">
<g id="g98">
<g id="path106">
<use xlink:href="#path9_fill" transform="matrix(1 -1.22465e-16 -1.22465e-16 -1 7607.77 -466.95)" fill="url(#paint10_linear)"/>
</g>
</g>
</g>
</g>
</g>
</g>
<g id="g108">
<g id="g110">
<g id="g116">
<g id="g118">
<g id="path130">
<use xlink:href="#path10_fill" transform="matrix(1 -1.22465e-16 -1.22465e-16 -1 7593.63 -466.95)" fill="url(#paint11_radial)"/>
</g>
</g>
</g>
</g>
</g>
<g id="g132">
<g id="g134">
<g id="g140">
<g id="g142">
<g id="path154">
<use xlink:href="#path11_fill" transform="matrix(1 -1.22465e-16 -1.22465e-16 -1 7593.63 -452.772)" fill="url(#paint12_linear)"/>
</g>
</g>
</g>
</g>
</g>
<g id="g156">
<g id="g158">
<g id="g164">
<g id="g166">
<g id="path178">
<use xlink:href="#path12_fill" transform="matrix(1 -1.22465e-16 -1.22465e-16 -1 7607.77 -452.772)" fill="url(#paint13_radial)"/>
</g>
</g>
</g>
</g>
</g>
<g id="g180">
<g id="g182 Clipped">
<mask id="mask5_outline" mask-type="alpha">
<g id="path186">
<use xlink:href="#path2_fill" transform="matrix(1 -1.22465e-16 -1.22465e-16 -1 7582 -442)" fill="#FFFFFF"/>
</g>
</mask>
<g id="g182" mask="url(#mask5_outline)">
<g id="g188">
<g id="path190">
<use xlink:href="#path13_fill" transform="matrix(1 -1.22465e-16 -1.22465e-16 -1 7604.21 -481.704)" fill="#151113"/>
</g>
</g>
<g id="g192">
<g id="path194">
<use xlink:href="#path14_fill" transform="matrix(1 -1.22465e-16 -1.22465e-16 -1 7618.05 -474.637)" fill="#151113"/>
</g>
</g>
<g id="g196">
<g id="path198">
<use xlink:href="#path15_fill" transform="matrix(1 -1.22465e-16 -1.22465e-16 -1 7589.62 -474.432)" fill="#151113"/>
</g>
</g>
</g>
</g>
</g>
<g id="g200">
<g id="g202">
<g id="g208">
<g id="g210">
<g id="path218">
<use xlink:href="#path16_fill" transform="matrix(1 -1.22465e-16 -1.22465e-16 -1 7603.93 -481.9)" fill="url(#paint18_linear)"/>
</g>
</g>
</g>
</g>
</g>
<g id="g220">
<g id="g222">
<g id="g228">
<g id="g230">
<g id="path238">
<use xlink:href="#path17_fill" transform="matrix(1 -1.22465e-16 -1.22465e-16 -1 7589.42 -474.627)" fill="url(#paint19_linear)"/>
</g>
</g>
</g>
</g>
</g>
<g id="g240">
<g id="g242">
<g id="g248">
<g id="g250">
<g id="path258">
<use xlink:href="#path18_fill" transform="matrix(1 -1.22465e-16 -1.22465e-16 -1 7617.77 -474.793)" fill="url(#paint20_linear)"/>
</g>
</g>
</g>
</g>
</g>
<g id="g260">
<g id="g262">
<g id="g268">
<g id="g270">
<g id="path278">
<use xlink:href="#path19_fill" transform="matrix(1 -1.22465e-16 -1.22465e-16 -1 7593.63 -452.772)" fill="url(#paint21_linear)"/>
</g>
</g>
</g>
</g>
</g>
<g id="g280">
<g id="g282 Clipped">
<mask id="mask6_outline" mask-type="alpha">
<g id="path286">
<use xlink:href="#path2_fill" transform="matrix(1 -1.22465e-16 -1.22465e-16 -1 7582 -442)" fill="#FFFFFF"/>
</g>
</mask>
<g id="g282" mask="url(#mask6_outline)">
<g id="g288">
<g id="path290">
<use xlink:href="#path20_fill" transform="matrix(1 -1.22465e-16 -1.22465e-16 -1 7593.62 -466.956)" fill="#3268A2"/>
</g>
</g>
<g id="g292">
<g id="path294">
<use xlink:href="#path21_fill" transform="matrix(1 -1.22465e-16 -1.22465e-16 -1 7607.02 -452.771)" fill="#484546"/>
</g>
</g>
<g id="g296">
<g id="path298">
<use xlink:href="#path22_fill" transform="matrix(1 -1.22465e-16 -1.22465e-16 -1 7593.63 -466.195)" fill="#F4F4F4"/>
</g>
</g>
<g id="g300">
<g id="path302">
<use xlink:href="#path23_fill" transform="matrix(1 -1.22465e-16 -1.22465e-16 -1 7607.77 -452.771)" fill="#81C7EF"/>
</g>
</g>
</g>
</g>
</g>
<g id="g304">
<g id="g306">
<g id="g312">
<g id="g314">
<g id="path322">
<use xlink:href="#path24_fill" transform="matrix(1 -1.22465e-16 -1.22465e-16 -1 7607.77 -466.928)" fill="url(#paint27_linear)"/>
</g>
</g>
</g>
</g>
</g>
<g id="g324">
<g id="g326">
<g id="g332">
<g id="g334">
<g id="path342">
<use xlink:href="#path25_fill" transform="matrix(1 -1.22465e-16 -1.22465e-16 -1 7607.77 -466.932)" fill="url(#paint28_linear)"/>
</g>
</g>
</g>
</g>
</g>
<g id="g344">
<g id="g346 Clipped">
<mask id="mask7_outline" mask-type="alpha">
<g id="path350">
<use xlink:href="#path2_fill" transform="matrix(1 -1.22465e-16 -1.22465e-16 -1 7582 -442)" fill="#FFFFFF"/>
</g>
</mask>
<g id="g346" mask="url(#mask7_outline)">
<g id="g352">
<g id="path354">
<use xlink:href="#path26_fill" transform="matrix(1 -1.22465e-16 -1.22465e-16 -1 7593.61 -466.948)" fill="#C2DBEB"/>
</g>
</g>
<g id="g356">
<g id="path358">
<use xlink:href="#path27_fill" transform="matrix(1 -1.22465e-16 -1.22465e-16 -1 7607.77 -452.772)" fill="#244C76"/>
</g>
</g>
</g>
</g>
</g>
</g>
</g>
<defs>
<linearGradient id="paint1_linear" x1="0" y1="0" x2="1" y2="0" gradientUnits="userSpaceOnUse" gradientTransform="matrix(32.8919 -32.965 33.2839 32.5768 6.57672 39.5022)">
<stop offset="0" stop-color="#DEDDDE"/>
<stop offset="0.447845" stop-color="#918F90"/>
<stop offset="0.447845" stop-color="#918F90"/>
<stop offset="0.895706" stop-color="#D3D2D2"/>
<stop offset="0.895706" stop-color="#D3D2D2"/>
<stop offset="1" stop-color="#D3D2D2"/>
</linearGradient>
<radialGradient id="paint5_radial" cx="0.5" cy="0.5" r="0.5" gradientUnits="userSpaceOnUse" gradientTransform="matrix(0.389758 0 0 0.39063 9.15866 47.2301)">
<stop offset="0" stop-color="#D1D6E2"/>
<stop offset="1" stop-color="#151113"/>
</radialGradient>
<linearGradient id="paint10_linear" x1="0" y1="0" x2="1" y2="0" gradientUnits="userSpaceOnUse" gradientTransform="matrix(0 -13.6752 13.6494 0 6.82466 13.6244)">
<stop offset="0" stop-color="#FFFFFF"/>
<stop offset="1" stop-color="#E9E9E9"/>
</linearGradient>
<radialGradient id="paint11_radial" cx="0.5" cy="0.5" r="0.5" gradientUnits="userSpaceOnUse" gradientTransform="matrix(0.389758 0 0 0.390552 13.4145 -0.145081)">
<stop offset="0" stop-color="#4992D5"/>
<stop offset="0.797546" stop-color="#80CDF2"/>
<stop offset="0.797546" stop-color="#80CDF2"/>
<stop offset="1" stop-color="#80CDF2"/>
</radialGradient>
<linearGradient id="paint12_linear" x1="0" y1="0" x2="1" y2="0" gradientUnits="userSpaceOnUse" gradientTransform="matrix(0 -13.658 13.6226 0 6.82392 13.6831)">
<stop offset="0" stop-color="#FFFFFF"/>
<stop offset="0.990005" stop-color="#D3D2D2"/>
<stop offset="0.990005" stop-color="#D3D2D2"/>
<stop offset="1" stop-color="#D3D2D2"/>
</linearGradient>
<radialGradient id="paint13_radial" cx="0.5" cy="0.5" r="0.5" gradientUnits="userSpaceOnUse" gradientTransform="matrix(0.389758 0 0 0.390709 -0.288811 13.5935)">
<stop offset="0" stop-color="#4992D5"/>
<stop offset="0.858902" stop-color="#3268A2"/>
<stop offset="0.858902" stop-color="#3268A2"/>
<stop offset="1" stop-color="#3268A2"/>
</radialGradient>
<linearGradient id="paint18_linear" x1="0" y1="0" x2="1" y2="0" gradientUnits="userSpaceOnUse" gradientTransform="matrix(6.77205 5.56641 -6.48585 5.81203 0.29439 0.222709)">
<stop offset="0" stop-color="#FFFFFF"/>
<stop offset="1" stop-color="#BDBCBC"/>
</linearGradient>
<linearGradient id="paint19_linear" x1="0" y1="0" x2="1" y2="0" gradientUnits="userSpaceOnUse" gradientTransform="matrix(8.04752 0 0 8.06749 0.00012862 4.03381)">
<stop offset="0" stop-color="#FFFFFF"/>
<stop offset="1" stop-color="#BDBCBC"/>
</linearGradient>
<linearGradient id="paint20_linear" x1="0" y1="0" x2="1" y2="0" gradientUnits="userSpaceOnUse" gradientTransform="matrix(8.11794 0 0 8.19497 1.16927e-05 4.09744)">
<stop offset="0" stop-color="#FFFFFF"/>
<stop offset="1" stop-color="#BDBCBC"/>
</linearGradient>
<linearGradient id="paint21_linear" x1="0" y1="0" x2="1" y2="0" gradientUnits="userSpaceOnUse" gradientTransform="matrix(10.5235 -12.5488 12.5212 10.5467 0.506834 12.0828)">
<stop offset="0" stop-color="#F2F3F6"/>
<stop offset="1" stop-color="#484546"/>
</linearGradient>
<linearGradient id="paint27_linear" x1="0" y1="0" x2="1" y2="0" gradientUnits="userSpaceOnUse" gradientTransform="matrix(3.31295 -9.81445 9.78109 3.32425 3.58169 9.72811)">
<stop offset="0" stop-color="#FFFFFF"/>
<stop offset="1" stop-color="#484546"/>
</linearGradient>
<linearGradient id="paint28_linear" x1="0" y1="0" x2="1" y2="0" gradientUnits="userSpaceOnUse" gradientTransform="matrix(12.862 -13.0859 13.0416 12.9057 1.96797 14.5243)">
<stop offset="0" stop-color="#F2F3F6"/>
<stop offset="1" stop-color="#484546"/>
</linearGradient>
<path id="path0_fill" fill-rule="evenodd" d="M 0 22.9098C 0 10.2574 10.358 0 23.1312 0C 35.9069 0 46.2631 10.2574 46.2631 22.9098C 46.2631 35.5637 35.9069 45.8199 23.1312 45.8199C 10.358 45.8199 3.80792e-15 35.5637 3.80792e-15 22.9098"/>
<path id="path1_fill" d="M 0 22.9098C 0 10.2574 10.358 0 23.1312 0C 35.9069 0 46.2631 10.2574 46.2631 22.9098C 46.2631 35.5637 35.9069 45.8199 23.1312 45.8199C 10.358 45.8199 3.80792e-15 35.5637 3.80792e-15 22.9098"/>
<path id="path2_fill" fill-rule="evenodd" d="M 0 50L 50.8635 50L 50.8635 0L 0 0L 0 50Z"/>
<path id="path3_fill" d="M 44.5036 22.3008C 44.5036 9.98516 34.5402 0 22.2509 0C 9.96203 0 0 9.98516 0 22.3008C 0 34.6182 9.96203 44.6021 22.2509 44.6021C 34.5402 44.6021 44.5036 34.6182 44.5036 22.3008Z"/>
<path id="path4_fill" fill-rule="evenodd" d="M 0 22.1971C 0 9.93633 9.91448 0 22.148 0C 34.3823 0 44.2968 9.93633 44.2968 22.1971C 44.2968 34.458 34.3823 44.3959 22.148 44.3959C 9.91448 44.3959 1.3847e-15 34.458 1.3847e-15 22.1971"/>
<path id="path5_fill" d="M 0 22.1971C 0 9.93633 9.91448 0 22.148 0C 34.3823 0 44.2968 9.93633 44.2968 22.1971C 44.2968 34.458 34.3823 44.3959 22.148 44.3959C 9.91448 44.3959 1.3847e-15 34.458 1.3847e-15 22.1971"/>
<path id="path6_fill" d="M 29.6893 14.6771C 29.6893 6.57148 23.0431 0 14.8439 0C 6.64596 0 0 6.57148 0 14.6771C 0 22.7848 6.64596 29.358 14.8439 29.358C 23.0431 29.358 29.6893 22.7848 29.6893 14.6771Z"/>
<path id="path7_fill" d="M 28.9279 14.4234C 28.9279 6.45781 22.452 0 14.4632 0C 6.47564 0 0 6.45781 0 14.4234C 0 22.3908 6.47564 28.8504 14.4632 28.8504C 22.452 28.8504 28.9279 22.3908 28.9279 14.4234Z"/>
<path id="path8_fill" fill-rule="evenodd" d="M 0 0L 13.6495 0C 13.517 7.49727 7.48063 13.5439 0 13.6754L 0 0Z"/>
<path id="path9_fill" d="M 0 0L 13.6495 0C 13.517 7.49727 7.48063 13.5439 0 13.6754L 0 0Z"/>
<path id="path10_fill" d="M 1.3847e-15 0L 13.6476 0L 13.6476 13.6754C 6.16715 13.5445 0.132518 7.49766 0 0"/>
<path id="path11_fill" d="M 13.6478 0L 13.6478 13.683L 0 13.6832C 0.129205 6.18457 6.16539 0.131055 13.6478 0Z"/>
<path id="path12_fill" d="M 0 13.683L 0 0C 7.48278 0.131445 13.5203 6.18496 13.6497 13.683L 0 13.683Z"/>
<path id="path13_fill" d="M 4.2051 0.268555L 5.68463 4.3498L 5.74231 0.219727L 7.12868 0L 7.03494 5.89687L 5.11285 6.1166L 3.55869 1.92734L 3.57506 1.92734L 2.01817 6.1166L 0.0939318 5.89687L 0 0L 1.3889 0.219727L 1.44659 4.3498L 2.92689 0.268555L 4.2051 0.268555Z"/>
<path id="path14_fill" d="M 6.30142 4.87754L 4.30683 1.95918L 7.43951 3.50664L 8.11789 2.31074L 3.113 0L 2.35745 1.21094L 4.27253 4.10137L 4.2622 4.11387L 1.07846 2.75098L 0 3.78027L 3.20362 8.19492L 4.24817 7.34551L 2.16686 4.53496L 5.38646 5.9748L 6.30142 4.87754Z"/>
<path id="path15_fill" fill-rule="evenodd" d="M 5.67725 6.09198C 6.35693 6.51602 7.08301 6.37988 7.55371 5.91974C 8.27539 5.21875 8.1665 4.40665 7.48291 3.58807L 4.47705 0L 0 3.76505L 2.84766 7.16544C 3.43896 7.87286 4.26025 8.43301 5.04639 7.77423L 5.0918 7.73624C 5.30176 7.56021 5.40918 7.47009 5.68506 6.96524C 5.75195 6.77579 5.8042 6.4332 5.67725 6.09198ZM 1.75977 4.28125L 3.46924 6.3252C 3.66797 6.55997 4.11475 6.55215 4.40479 6.30801C 4.72412 6.04337 4.72461 5.66483 4.50928 5.41113L 2.81934 3.38925L 1.75977 4.28125ZM 6.48145 3.94025L 4.69873 1.81055L 3.57715 2.75098L 5.37646 4.89941C 5.5791 5.142 6.02979 5.21094 6.33643 4.95587C 6.68408 4.66486 6.71875 4.22501 6.48145 3.94025Z"/>
<path id="path16_fill" d="M 3.56512 1.94961L 2.01817 6.1166L 0.0939318 5.89687L 0 0L 1.3889 0.219727L 1.44678 4.3498L 2.92709 0.268555L 4.20335 0.268555L 5.68287 4.3498L 5.74056 0.219727L 7.12693 0L 7.03299 5.89687L 5.1111 6.1166L 3.56512 1.94961Z"/>
<path id="path17_fill" fill-rule="evenodd" d="M 2.84814 7.16562L 0 3.76505L 4.47754 0L 7.4834 3.58829C 8.16699 4.40683 8.27539 5.21893 7.5542 5.91992C 7.0835 6.37988 6.35742 6.5162 5.67725 6.09198C 5.80469 6.4332 5.75244 6.77579 5.68506 6.96542C 5.40967 7.46979 5.30176 7.56027 5.0918 7.73608L 5.04639 7.77441C 4.80029 7.98087 4.55029 8.06757 4.30518 8.06757C 3.76807 8.06757 3.25391 7.65118 2.84814 7.16562ZM 1.75977 4.28125L 3.46973 6.32541C 3.66797 6.55997 4.11523 6.55215 4.40527 6.30801C 4.72412 6.04358 4.72461 5.66486 4.50928 5.41113L 2.81934 3.38947L 1.75977 4.28125ZM 5.37695 4.8996L 3.57764 2.75098L 4.69922 1.81073L 6.48193 3.94022C 6.71924 4.22498 6.68457 4.66504 6.33691 4.95584C 6.03027 5.21112 5.57959 5.14218 5.37695 4.8996Z"/>
<path id="path18_fill" d="M 0 3.78027L 1.07846 2.75078L 4.2624 4.11387L 4.27253 4.10137L 2.35745 1.21094L 3.113 0L 8.11789 2.31094L 7.43951 3.50664L 4.30663 1.95918L 6.36924 4.79609L 5.45428 5.89316L 2.16686 4.53477L 4.24817 7.34551L 3.20362 8.19492L 0 3.78027Z"/>
<path id="path19_fill" d="M 0 13.6801C 0.133492 6.18145 6.16676 0.133008 13.6499 0L 13.6499 0.248828C 6.30726 0.377148 0.376312 6.32227 0.248081 13.6801L 0 13.6801Z"/>
<path id="path20_fill" d="M 13.3977 13.6914L 13.3977 0.261523L 0 0.261523L 0 0L 13.3977 0L 13.6603 0L 13.6603 0.261523L 13.6603 13.6914L 13.3977 13.6914Z"/>
<path id="path21_fill" d="M 0.2674 13.685L 0.2674 0L 0 0.256641L 0 13.4232L 0.2674 13.685Z"/>
<path id="path22_fill" d="M 13.3859 0L 0.253928 0L 0 0.268L 13.6464 0.268L 13.3859 0Z"/>
<path id="path23_fill" d="M 0.177925 0.00996094L 0.177925 13.5018L 13.6431 13.5018L 13.653 13.6852L 0 13.6852L 0 0L 0.177925 0.00996094Z"/>
<path id="path24_fill" d="M 0 2.77556e-15L 13.6527 2.77556e-15L 13.6431 0.261133L 0.260164 0.261133L 0.260164 13.6748L 0 13.6992L 0 2.77556e-15Z"/>
<path id="path25_fill" d="M 0.257435 13.4391C 7.39196 13.1814 13.1327 7.43301 13.3948 0.281641L 13.3983 0.257031L 13.6499 0C 13.5155 7.49707 7.48239 13.5633 0 13.6963L 0.257435 13.4391Z"/>
<path id="path26_fill" d="M 0.256071 0.268945C 0.518768 7.43145 6.26692 13.1855 13.4124 13.4445L 13.6667 13.6988C 6.17747 13.5672 0.132518 7.50957 0 0L 0.256071 0.268945Z"/>
<path id="path27_fill" d="M 13.397 13.4959C 13.1635 6.30449 7.36565 0.487891 0.189033 0.253906L 0 0C 7.48219 0.133008 13.5162 6.18125 13.6499 13.6801C 13.6499 13.6799 13.397 13.4959 13.397 13.4959Z"/>
</defs>
</svg>
