<svg width="84" height="84" viewBox="0 0 84 84" version="1.1" xmlns="http://www.w3.org/2000/svg" xmlns:xlink="http://www.w3.org/1999/xlink">
<title>box</title>
<desc>Created using Figma</desc>
<g id="Canvas" transform="translate(-6006 -2457)">
<g id="box">
<g id="Rectangle 7 Copy 4" opacity="0.2">
<mask id="mask0_outline_out">
<rect id="mask0_outline_inv" fill="white" x="-2" y="-2" width="84" height="84" transform="translate(6008 2459)"/>
<use xlink:href="#path0_fill" fill="black" transform="translate(6008 2459)"/>
</mask>
<g mask="url(#mask0_outline_out)">
<use xlink:href="#path1_stroke_2x" transform="translate(6008 2459)"/>
</g>
</g>
<g id="box">
<g id="Shape">
<use xlink:href="#path2_fill" transform="translate(6017.53 2482.32)"/>
</g>
</g>
</g>
</g>
<defs>
<path id="path0_fill" fill-rule="evenodd" d="M 1.39833 5.18012C 1.65055 3.15292 3.26417 1.68395 5.29769 1.48909C 10.8984 0.952418 23.2038 2.05694e-15 40 0C 56.41 0 68.5333 0.909122 74.3054 1.45143C 76.5363 1.66104 78.2816 3.37954 78.5129 5.60838C 79.0846 11.1179 80 22.6485 80 40C 80 57.6129 79.0568 69.2281 78.4873 74.6365C 78.2646 76.7514 76.6682 78.3919 74.5544 78.625C 69.5955 79.172 58.9579 80 40 80C 20.544 80 9.85121 79.1279 5.0664 78.5825C 3.14832 78.3639 1.67061 76.9575 1.42637 75.0425C 0.852921 70.5463 0 60.4257 0 40C 1.23048e-15 19.9047 0.825555 9.78377 1.39833 5.18012Z"/>
<path id="path1_stroke_2x" d="M 5.29769 1.48909L 5.10691 -0.501788L 5.29769 1.48909ZM 74.3054 1.45143L 74.1183 3.44266L 74.3054 1.45143ZM 40 80L 40 82L 40 80ZM 5.0664 78.5825L 4.83989 80.5696L 5.0664 78.5825ZM 78.5129 5.60838L 80.5022 5.40194L 78.5129 5.60838ZM 74.5544 78.625L 74.7737 80.613L 74.5544 78.625ZM 5.48846 3.47997C 11.0709 2.94496 23.2811 1.99851 40 2L 40 -2C 23.1266 -1.99851 10.7258 -1.04012 5.10691 -0.501788L 5.48846 3.47997ZM 40 2C 56.3351 1.9986 68.365 2.90203 74.1183 3.44266L 74.4924 -0.539802C 68.7017 -1.08378 56.4848 -1.9986 40 -2L 40 2ZM 76.5236 5.81481C 77.0929 11.3003 78.0016 22.7277 78 40L 82 40C 81.9984 22.5693 81.0763 10.9356 80.5022 5.40194L 76.5236 5.81481ZM 78 40C 78.0016 57.5319 77.0655 69.0425 76.4983 74.4271L 80.4763 74.846C 81.0482 69.4138 81.9984 57.6939 82 40L 78 40ZM 74.3352 76.6371C 69.4083 77.1808 58.8802 78.0015 40 78L 40 82C 59.0355 81.9985 69.7828 81.1632 74.7737 80.613L 74.3352 76.6371ZM 40 78C 20.6254 78.0017 10.0458 77.1374 5.29291 76.5954L 4.83989 80.5696C 9.65665 81.1184 20.4627 81.9983 40 82L 40 78ZM 3.4103 74.7894C 2.84181 70.3358 1.99823 60.3416 2 40L -2 40C -1.99823 60.5097 -1.13597 70.7568 -0.557563 75.2955L 3.4103 74.7894ZM 2 40C 1.99834 19.9861 2.81504 9.98858 3.38303 5.42705L -0.58637 4.93319C -1.16393 9.57896 -1.99834 19.8233 -2 40L 2 40ZM 5.10691 -0.501788C 2.20593 -0.223808 -0.210579 1.91279 -0.58637 4.93319L 3.38303 5.42705C 3.51167 4.39306 4.32241 3.59171 5.48846 3.47997L 5.10691 -0.501788ZM 74.1183 3.44266C 75.4056 3.56361 76.3913 4.54023 76.5236 5.81481L 80.5022 5.40194C 80.1719 2.21885 77.6671 -0.241531 74.4924 -0.539802L 74.1183 3.44266ZM 76.4983 74.4271C 76.3717 75.6289 75.4923 76.5094 74.3352 76.6371L 74.7737 80.613C 77.844 80.2743 80.1574 77.8739 80.4763 74.846L 76.4983 74.4271ZM 5.29291 76.5954C 4.25504 76.4771 3.53359 75.7561 3.4103 74.7894L -0.557563 75.2955C -0.192375 78.1588 2.04161 80.2507 4.83989 80.5696L 5.29291 76.5954Z"/>
<path id="path2_fill" fill-rule="evenodd" d="M 60.987 4.81219L 56.997 30.7442C 56.953 32.3592 55.624 33.6602 53.998 33.6602L 20.998 33.6602C 19.344 33.6602 17.998 32.3142 17.998 30.6602C 17.998 30.6092 18.002 30.5582 18.01 30.5082L 21.999 4.57619C 22.031 3.43919 22.705 2.46919 23.664 1.98819C 23.682 1.97719 23.7 1.96819 23.718 1.95919C 24.108 1.77319 24.539 1.66019 24.998 1.66019L 25.751 1.66019L 40.583 0.00818765C 41.126 -0.0528123 41.626 0.342188 41.688 0.891188C 41.72 1.18419 41.616 1.45619 41.434 1.66019L 42.389 1.66019C 42.205 1.45419 42.1 1.18119 42.135 0.885188C 42.2 0.336188 42.706 -0.0628124 43.245 0.00818765L 57.335 1.66019L 57.998 1.66019C 58.459 1.66019 58.89 1.77319 59.281 1.95919C 59.304 1.97119 59.326 1.98219 59.348 1.99519C 60.322 2.49119 60.998 3.49319 60.998 4.66019C 60.998 4.71119 60.995 4.76219 60.987 4.81219ZM 37.3411 3.66019L 35.8811 10.0082L 36.2531 9.83919C 36.3851 9.78019 36.5251 9.75019 36.6661 9.75019C 36.8211 9.75019 36.9761 9.78719 37.1181 9.85819L 39.3131 10.9722L 41.9781 9.95919C 42.1921 9.87719 42.4301 9.87219 42.6471 9.94419L 44.2011 10.4562L 45.7641 3.66019L 37.3411 3.66019ZM 58.492 3.80919L 57.219 3.66019L 47.805 3.66019L 45.906 11.9732C 45.843 12.2472 45.667 12.4832 45.422 12.6212C 45.178 12.7602 44.885 12.7872 44.618 12.7002L 42.357 11.9552L 39.611 12.9982C 39.496 13.0422 39.375 13.0632 39.255 13.0632C 39.1 13.0632 38.945 13.0272 38.803 12.9562L 36.642 11.8592L 34.87 12.6622C 34.524 12.8182 34.119 12.7652 33.825 12.5252C 33.531 12.2852 33.398 11.8982 33.482 11.5282L 35.28 3.66019L 25.859 3.66019L 24.502 3.81119C 24.207 3.98519 23.998 4.29319 23.998 4.66019C 23.998 4.71119 23.995 4.76219 23.987 4.81219L 20 30.7242C 20.033 31.2452 20.468 31.6602 20.998 31.6602L 53.998 31.6602C 54.55 31.6602 54.998 31.2122 54.998 30.6602C 54.998 30.6092 55.002 30.5582 55.01 30.5082L 58.996 4.59719C 58.975 4.25519 58.772 3.97319 58.492 3.80919ZM 37.3679 21.1832C 37.0609 21.1832 36.7579 21.0422 36.5619 20.7762L 36.1229 20.1802L 35.3739 25.0172C 35.2929 25.5062 34.8689 25.8532 34.3879 25.8532C 34.3339 25.8532 34.2789 25.8492 34.2239 25.8402C 33.6789 25.7502 33.3099 25.2352 33.3999 24.6902L 34.1469 19.8752L 33.5629 20.2822C 33.3889 20.4032 33.1889 20.4612 32.9919 20.4612C 32.6759 20.4612 32.3659 20.3122 32.1709 20.0342C 31.8549 19.5802 31.9659 18.9582 32.4189 18.6412L 34.9579 16.8692C 35.0069 16.8352 35.0629 16.8252 35.1149 16.8012C 35.1809 16.7712 35.2439 16.7312 35.3139 16.7162C 35.3649 16.7042 35.4159 16.7122 35.4679 16.7092C 35.5449 16.7042 35.6199 16.6932 35.6959 16.7062C 35.7489 16.7142 35.7949 16.7422 35.8459 16.7592C 35.9159 16.7832 35.9879 16.7992 36.0529 16.8392C 36.1049 16.8712 36.1449 16.9222 36.1909 16.9652C 36.2389 17.0092 36.2959 17.0412 36.3359 17.0962L 38.1729 19.5902C 38.4999 20.0352 38.4049 20.6612 37.9599 20.9892C 37.7819 21.1202 37.5739 21.1832 37.3679 21.1832ZM 30.3679 21.1832C 30.0609 21.1832 29.7579 21.0422 29.5619 20.7762L 29.1229 20.1802L 28.3739 25.0172C 28.2929 25.5062 27.8689 25.8532 27.3879 25.8532C 27.3339 25.8532 27.2789 25.8492 27.2239 25.8402C 26.6789 25.7502 26.3099 25.2352 26.3999 24.6902L 27.1469 19.8752L 26.5629 20.2822C 26.3889 20.4032 26.1889 20.4612 25.9919 20.4612C 25.6759 20.4612 25.3659 20.3122 25.1709 20.0342C 24.8549 19.5802 24.9659 18.9582 25.4189 18.6412L 27.9579 16.8692C 28.0069 16.8352 28.0639 16.8252 28.1159 16.8012C 28.1819 16.7702 28.2439 16.7312 28.3129 16.7162C 28.3649 16.7042 28.4159 16.7122 28.4679 16.7092C 28.5449 16.7042 28.6209 16.6932 28.6959 16.7062C 28.7469 16.7142 28.7919 16.7412 28.8409 16.7582C 28.9139 16.7822 28.9869 16.7992 29.0529 16.8392C 29.1039 16.8702 29.1419 16.9212 29.1879 16.9622C 29.2369 17.0062 29.2949 17.0402 29.3359 17.0962L 31.1719 19.5902C 31.4999 20.0352 31.4049 20.6612 30.9599 20.9892C 30.7819 21.1202 30.5739 21.1832 30.3679 21.1832ZM 25.5371 26.6022L 36.3551 26.6022C 36.9071 26.6022 37.3551 27.0502 37.3551 27.6022C 37.3551 28.1552 36.9071 28.6022 36.3551 28.6022L 25.5371 28.6022C 24.9851 28.6022 24.5371 28.1552 24.5371 27.6022C 24.5371 27.0502 24.9851 26.6022 25.5371 26.6022ZM 18.461 6.63719L 1 6.63719C 0.448 6.63719 0 6.18919 0 5.63719C 0 5.08519 0.448 4.63719 1 4.63719L 18.461 4.63719C 19.013 4.63719 19.461 5.08519 19.461 5.63719C 19.461 6.18919 19.013 6.63719 18.461 6.63719ZM 4.05908 11.6372L 17.4021 11.6372C 17.9541 11.6372 18.4021 12.0852 18.4021 12.6372C 18.4021 13.1892 17.9541 13.6372 17.4021 13.6372L 4.05908 13.6372C 3.50708 13.6372 3.05908 13.1892 3.05908 12.6372C 3.05908 12.0852 3.50708 11.6372 4.05908 11.6372ZM 7.11792 18.5752L 15.9899 18.5752C 16.5419 18.5752 16.9899 19.0222 16.9899 19.5752C 16.9899 20.1272 16.5419 20.5752 15.9899 20.5752L 7.11792 20.5752C 6.56592 20.5752 6.11792 20.1272 6.11792 19.5752C 6.11792 19.0222 6.56592 18.5752 7.11792 18.5752Z"/>
</defs>
</svg>
