<svg width="29" height="31" viewBox="0 0 29 31" version="1.1" xmlns="http://www.w3.org/2000/svg" xmlns:xlink="http://www.w3.org/1999/xlink">
<title>delivery</title>
<desc>Created using Figma</desc>
<g id="Canvas" transform="translate(-741 2185)">
<g id="delivery">
<g id="shopping-cart-4">
<use xlink:href="#path0_fill" transform="translate(741 -2185)" fill="#FF0000"/>
</g>
</g>
</g>
<defs>
<path id="path0_fill" fill-rule="evenodd" d="M 8.22477 20.3503L 25.5364 20.3503C 27.4485 20.3503 29 18.8034 29 16.9113L 29 9.66873C 29 9.24683 28.6524 8.90165 28.2274 8.90165C 27.8025 8.90165 27.4549 9.24683 27.4549 9.66873L 27.4549 16.9049C 27.4549 17.9596 26.5922 18.8098 25.5364 18.8098L 8.22477 18.8098C 7.16251 18.8098 6.30626 17.9532 6.30626 16.9049L 6.30626 12.6412L 6.30626 7.87248L 6.30626 7.25242L 6.30626 2.76499C 6.30626 2.73942 6.30626 2.71385 6.29983 2.68189C 6.29983 2.6755 6.29983 2.66911 6.29983 2.66271C 6.29983 2.64354 6.29339 2.62436 6.29339 2.61157C 6.29339 2.59879 6.28695 2.57961 6.28051 2.56683C 6.28051 2.56044 6.27407 2.54765 6.27407 2.54126C 6.26764 2.52208 6.2612 2.5093 6.25476 2.49651C 6.25476 2.49012 6.24832 2.48373 6.24832 2.47094C 6.24188 2.45816 6.23545 2.44537 6.22901 2.4262C 6.22257 2.4198 6.22257 2.40702 6.21613 2.40063C 6.20969 2.38784 6.20326 2.37506 6.19682 2.36867C 6.19038 2.35588 6.18394 2.34949 6.17751 2.3367C 6.17107 2.33031 6.16463 2.31753 6.15819 2.31113C 6.15175 2.29835 6.13888 2.28557 6.13244 2.27278C 6.126 2.26639 6.11956 2.26 6.11956 2.2536C 6.10669 2.24082 6.10025 2.22803 6.08737 2.21525C 6.08094 2.20886 6.0745 2.20886 6.0745 2.20246C 6.06162 2.18968 6.04875 2.1769 6.03587 2.16411C 6.02943 2.15772 6.02299 2.15133 6.01656 2.15133C 6.00368 2.13854 5.9908 2.13215 5.97793 2.11936C 5.96505 2.11297 5.95218 2.10019 5.93286 2.09379C 5.92643 2.0874 5.91999 2.0874 5.91355 2.08101C 5.8878 2.06823 5.86205 2.05544 5.84273 2.04266L 1.07222 0.0610273C 0.679505 -0.105174 0.228849 0.0802044 0.0614626 0.470138C -0.105924 0.853679 0.0807764 1.30754 0.473491 1.47374L 4.75472 3.26999L 4.75472 7.25242L 4.75472 7.87248L 4.75472 12.6412L 4.75472 16.9049L 4.75472 22.2936C 4.75472 24.0963 6.15175 25.5729 7.92862 25.7199C 7.5681 26.2569 7.35565 26.9025 7.35565 27.5993C 7.35565 29.4722 8.89432 31 10.7806 31C 12.6669 31 14.2056 29.4722 14.2056 27.5993C 14.2056 26.9089 13.9996 26.2697 13.6455 25.7327L 21.841 25.7327C 21.4869 26.2697 21.2809 26.9089 21.2809 27.5993C 21.2809 29.4722 22.8196 31 24.7059 31C 26.5922 31 28.1309 29.4722 28.1309 27.5993C 28.1309 25.7263 26.5922 24.1985 24.7059 24.1985L 8.22477 24.1985C 7.16251 24.1985 6.30626 23.342 6.30626 22.2936L 6.30626 19.7686C 6.85349 20.133 7.5166 20.3503 8.22477 20.3503ZM 12.6605 27.5992C 12.6605 28.6284 11.8171 29.4658 10.7806 29.4658C 9.74413 29.4658 8.90076 28.6284 8.90076 27.5992C 8.90076 26.5701 9.74413 25.7327 10.7806 25.7327C 11.8171 25.7327 12.6605 26.5701 12.6605 27.5992ZM 26.5793 27.5992C 26.5793 28.6284 25.736 29.4658 24.6995 29.4658C 23.663 29.4658 22.8196 28.6284 22.8196 27.5992C 22.8196 26.5701 23.663 25.7327 24.6995 25.7327C 25.736 25.7327 26.5793 26.5701 26.5793 27.5992ZM 10.5811 15.8053L 23.1866 15.8053C 23.6115 15.8053 23.9591 15.4601 23.9591 15.0382L 23.9591 3.95385C 23.9591 3.53195 23.6115 3.18677 23.1866 3.18677L 10.5811 3.18677C 10.1562 3.18677 9.80853 3.53195 9.80853 3.95385L 9.80853 15.0318C 9.80853 15.4601 10.1497 15.8053 10.5811 15.8053ZM 11.3536 5.66064L 21.1457 14.2711L 11.3536 14.2711L 11.3536 5.66064ZM 22.4075 13.3314L 12.6154 4.72095L 22.4075 4.72095L 22.4075 13.3314Z"/>
</defs>
</svg>
