<svg width="18" height="20" viewBox="0 0 18 20" version="1.1" xmlns="http://www.w3.org/2000/svg" xmlns:xlink="http://www.w3.org/1999/xlink">
<title>forward</title>
<desc>Created using Figma</desc>
<g id="Canvas" transform="translate(-7574 1309)">
<g id="forward">
<g id="Line">
<use xlink:href="#path0_stroke" transform="matrix(-1 0 0 1 7591 -1300)"/>
</g>
<g id="Line">
<use xlink:href="#path1_stroke" transform="matrix(-1 0 0 1 7584 -1308)"/>
</g>
<g id="Line">
<use xlink:href="#path2_stroke" transform="matrix(-1 0 0 1 7584 -1299)"/>
</g>
</g>
</g>
<defs>
<path id="path0_stroke" d="M 0 0C -0.552285 0 -1 0.447715 -1 1C -1 1.55228 -0.552285 2 0 2L 0 0ZM 16 2C 16.5523 2 17 1.55228 17 1C 17 0.447715 16.5523 0 16 0L 16 2ZM 0 2L 16 2L 16 0L 0 0L 0 2Z"/>
<path id="path1_stroke" d="M 8.29289 9.70711C 8.68342 10.0976 9.31658 10.0976 9.70711 9.70711C 10.0976 9.31658 10.0976 8.68342 9.70711 8.29289L 8.29289 9.70711ZM 1.64485 0.230635C 1.25432 -0.159889 0.62116 -0.159889 0.230635 0.230635C -0.159889 0.62116 -0.159889 1.25432 0.230635 1.64485L 1.64485 0.230635ZM 9.70711 8.29289L 1.64485 0.230635L 0.230635 1.64485L 8.29289 9.70711L 9.70711 8.29289Z"/>
<path id="path2_stroke" d="M 9.70711 0.707107C 10.0976 0.316582 10.0976 -0.316582 9.70711 -0.707107C 9.31658 -1.09763 8.68342 -1.09763 8.29289 -0.707107L 9.70711 0.707107ZM 0.230635 7.35515C -0.159889 7.74568 -0.159889 8.37884 0.230635 8.76936C 0.62116 9.15989 1.25432 9.15989 1.64485 8.76936L 0.230635 7.35515ZM 8.29289 -0.707107L 0.230635 7.35515L 1.64485 8.76936L 9.70711 0.707107L 8.29289 -0.707107Z"/>
</defs>
</svg>
