<svg width="25" height="31" viewBox="0 0 25 31" version="1.1" xmlns="http://www.w3.org/2000/svg" xmlns:xlink="http://www.w3.org/1999/xlink">
<title>garanty</title>
<desc>Created using Figma</desc>
<g id="Canvas" transform="translate(-1331 2185)">
<g id="garanty">
<g id="like-1">
<use xlink:href="#path0_fill" transform="translate(1331 -2185)" fill="#FF0000"/>
</g>
</g>
</g>
<defs>
<path id="path0_fill" fill-rule="evenodd" d="M 7.60759 12.6393C 7.60759 12.2169 7.26582 11.8713 6.8481 11.8713L 0.759494 11.8713C 0.341772 11.8713 0 12.2169 0 12.6393C 0 13.0617 0.341772 13.4073 0.759494 13.4073L 6.8481 13.4073C 7.26582 13.4073 7.60759 13.0617 7.60759 12.6393ZM 24.2406 11.8713L 18.1519 11.8713C 17.7342 11.8713 17.3925 12.2169 17.3925 12.6393C 17.3925 13.0617 17.7342 13.4073 18.1519 13.4073L 24.2406 13.4073C 24.6583 13.4073 25.0001 13.0617 25.0001 12.6393C 25.0001 12.2169 24.6646 11.8713 24.2406 11.8713ZM 12.5 7.6924C 12.9177 7.6924 13.2595 7.34682 13.2595 6.92444L 13.2595 0.76796C 13.2595 0.345582 12.9177 0 12.5 0C 12.0823 0 11.7405 0.345582 11.7405 0.76796L 11.7405 6.92444C 11.7405 7.34682 12.0823 7.6924 12.5 7.6924ZM 16.4936 9.36908C 16.6898 9.36908 16.8797 9.29229 17.0316 9.1451L 21.3417 4.78692C 21.6392 4.48614 21.6392 3.99976 21.3417 3.69898C 21.0443 3.39819 20.5632 3.39819 20.2658 3.69898L 15.9556 8.05715C 15.6582 8.35794 15.6582 8.84431 15.9556 9.1451C 16.1075 9.29229 16.3037 9.36908 16.4936 9.36908ZM 7.96841 9.1451C 8.11398 9.29229 8.31018 9.36908 8.50638 9.36908C 8.70259 9.36908 8.89246 9.29229 9.04436 9.1451C 9.34183 8.84431 9.34183 8.35794 9.04436 8.05715L 4.73423 3.69898C 4.43676 3.39819 3.95575 3.39819 3.65828 3.69898C 3.36081 3.99976 3.36081 4.48614 3.65828 4.78692L 7.96841 9.1451ZM 21.6266 17.4838C 21.0506 16.9847 20.3228 16.7095 19.5823 16.7095L 18.8924 16.7095L 16.4114 16.7095L 15.2342 16.7095L 15.2342 13.6056C 15.2342 12.1209 14.7975 11.0394 13.9304 10.393C 12.5633 9.38185 10.7089 9.95142 10.6266 9.97702C 10.3101 10.0794 10.0949 10.3738 10.0949 10.7066L 10.0949 14.4504C 10.0949 15.5895 9.55697 16.5559 8.48735 17.3302C 7.67722 17.919 6.84811 18.1878 6.74051 18.2198L 6.66456 18.239C 6.37975 17.9126 5.96203 17.7078 5.49368 17.7078L 2.6076 17.7078C 1.74684 17.7078 1.04431 18.4182 1.04431 19.2885L 1.04431 28.8624C 1.04431 29.7328 1.74684 30.4432 2.6076 30.4432L 5.50634 30.4432C 5.88608 30.4432 6.24051 30.3024 6.50634 30.072C 7.08862 30.6479 7.87975 30.9999 8.73418 30.9999L 11.6139 30.9999L 11.9114 30.9999L 17.8038 30.9999C 18.7152 30.9999 19.519 30.7759 20.1329 30.36C 20.9177 29.8224 21.4051 28.9712 21.5443 27.8833L 22.7152 20.5237C 22.8987 19.3845 22.481 18.2198 21.6266 17.4838ZM 5.55057 28.8626C 5.55057 28.8882 5.53159 28.9074 5.50627 28.9074L 2.60754 28.9074C 2.58222 28.9074 2.56323 28.8882 2.56323 28.8626L 2.56323 19.2887C 2.56323 19.2631 2.58222 19.2439 2.60754 19.2439L 5.50627 19.2439C 5.53159 19.2439 5.55057 19.2631 5.55057 19.2887L 5.55057 28.8626ZM 21.2151 20.287L 20.0443 27.6594C 20.0443 27.6658 20.0443 27.6786 20.0379 27.6914C 19.9873 28.133 19.8227 29.4705 17.8038 29.4705L 11.9114 29.4705L 11.6139 29.4705L 8.73414 29.4705C 7.92401 29.4705 7.21515 28.8562 7.08857 28.0434C 7.08224 28.0114 7.07591 27.9794 7.06958 27.9538L 7.06958 19.7238L 7.11388 19.711C 7.12654 19.711 7.13287 19.7046 7.14553 19.7046C 7.18983 19.6918 8.26578 19.3847 9.3354 18.6103C 10.8227 17.5416 11.6139 16.1016 11.6139 14.4505L 11.6139 11.3403C 12.0316 11.2955 12.6076 11.3147 13.0316 11.6283C 13.4873 11.9674 13.7151 12.633 13.7151 13.5994L 13.7151 17.4712C 13.7151 17.8935 14.0569 18.2391 14.4746 18.2391L 16.4114 18.2391L 18.8924 18.2391L 19.5822 18.2391C 19.962 18.2391 20.3354 18.3863 20.6392 18.6423C 21.0949 19.0391 21.3101 19.6663 21.2151 20.287Z"/>
</defs>
</svg>
