<svg width="20" height="22" viewBox="0 0 20 22" version="1.1" xmlns="http://www.w3.org/2000/svg" xmlns:xlink="http://www.w3.org/1999/xlink">
<title>ic_ad</title>
<desc>Created using Figma</desc>
<g id="Canvas" transform="translate(-779 310)">
<g id="ic_ad">
<g id="Rectangle 2">
<use xlink:href="#path0_stroke" transform="translate(780 -307)"/>
</g>
<g id="Oval">
<use xlink:href="#path1_stroke" transform="translate(780 -293)"/>
</g>
<g id="Oval Copy">
<use xlink:href="#path2_stroke" transform="translate(794 -293)"/>
</g>
<g id="Line">
<use xlink:href="#path3_stroke" transform="translate(788 -294)"/>
</g>
<g id="Line">
<use xlink:href="#path4_stroke" transform="translate(784 -290)"/>
</g>
<g id="Rectangle 3">
<use xlink:href="#path5_stroke" transform="translate(782 -309)"/>
</g>
<g id="Rectangle 3 Copy">
<use xlink:href="#path5_stroke" transform="translate(790 -309)"/>
</g>
<g id="Line">
<use xlink:href="#path6_stroke" transform="translate(784 -303)"/>
</g>
<g id="Line Copy">
<use xlink:href="#path6_stroke" transform="translate(784 -299)"/>
</g>
</g>
</g>
<defs>
<path id="path0_stroke" d="M -1 14C -1 14.5523 -0.552285 15 0 15C 0.552285 15 1 14.5523 1 14L -1 14ZM 14 0L 15 0C 15 -0.552285 14.5523 -1 14 -1L 14 0ZM 13 14C 13 14.5523 13.4477 15 14 15C 14.5523 15 15 14.5523 15 14L 13 14ZM 1 14L 1 0L -1 0L -1 14L 1 14ZM 0 1L 14 1L 14 -1L 0 -1L 0 1ZM 13 0L 13 14L 15 14L 15 0L 13 0Z"/>
<path id="path1_stroke" d="M 1 0C 1 -0.552285 0.552285 -1 0 -1C -0.552285 -1 -1 -0.552285 -1 0L 1 0ZM 9 0C 9 -0.552285 8.55228 -1 8 -1C 7.44772 -1 7 -0.552285 7 0L 9 0ZM -1 0C -1 2.76142 1.23858 5 4 5L 4 3C 2.34315 3 1 1.65685 1 0L -1 0ZM 4 5C 6.76142 5 9 2.76142 9 0L 7 0C 7 1.65685 5.65685 3 4 3L 4 5Z"/>
<path id="path2_stroke" d="M 5 0C 5 -0.552285 4.55228 -1 4 -1C 3.44772 -1 3 -0.552285 3 0L 5 0ZM 0 5C 2.76142 5 5 2.76142 5 0L 3 0C 3 1.65685 1.65685 3 0 3L 0 5Z"/>
<path id="path3_stroke" d="M 0 0C -0.552285 0 -1 0.447715 -1 1C -1 1.55228 -0.552285 2 0 2L 0 0ZM 10 2C 10.5523 2 11 1.55228 11 1C 11 0.447715 10.5523 0 10 0L 10 2ZM 0 2L 10 2L 10 0L 0 0L 0 2Z"/>
<path id="path4_stroke" d="M 10 2C 10.5523 2 11 1.55228 11 1C 11 0.447715 10.5523 0 10 0L 10 2ZM 0 0C -0.552285 0 -1 0.447715 -1 1C -1 1.55228 -0.552285 2 0 2L 0 0ZM 10 0L 0 0L 0 2L 10 2L 10 0Z"/>
<path id="path5_stroke" d="M 0 0L 0 -1C -0.552285 -1 -1 -0.552285 -1 2.22045e-16L 0 0ZM 2 0L 3 0C 3 -0.552285 2.55228 -1 2 -1L 2 0ZM 2 2L 2 3C 2.55228 3 3 2.55228 3 2L 2 2ZM 0 2L -1 2C -1 2.55228 -0.552285 3 2.22045e-16 3L 0 2ZM 0 1L 2 1L 2 -1L 0 -1L 0 1ZM 1 0L 1 2L 3 2L 3 0L 1 0ZM 2 1L 0 1L 0 3L 2 3L 2 1ZM 1 2L 1 0L -1 0L -1 2L 1 2Z"/>
<path id="path6_stroke" d="M 0 0C -0.552285 0 -1 0.447715 -1 1C -1 1.55228 -0.552285 2 0 2L 0 0ZM 6 2C 6.55228 2 7 1.55228 7 1C 7 0.447715 6.55228 0 6 0L 6 2ZM 0 2L 6 2L 6 0L 0 0L 0 2Z"/>
</defs>
</svg>
