<svg width="18" height="18" viewBox="0 0 18 18" version="1.1" xmlns="http://www.w3.org/2000/svg" xmlns:xlink="http://www.w3.org/1999/xlink">
<title>ic_bag</title>
<desc>Created using Figma</desc>
<g id="Canvas" transform="translate(-2296 193)">
<g id="ic_bag">
<g id="Rectangle 2">
<use xlink:href="#path0_stroke" transform="translate(2297.5 -188.167)"/>
</g>
<g id="Oval">
<use xlink:href="#path1_stroke" transform="translate(2301.67 -191.5)"/>
</g>
<g id="Oval 2">
<use xlink:href="#path2_fill" transform="translate(2300.83 -185.667)"/>
<use xlink:href="#path3_stroke" transform="translate(2300.83 -185.667)"/>
</g>
<g id="Oval 2 Copy">
<use xlink:href="#path4_fill" transform="translate(2307.5 -185.667)"/>
<use xlink:href="#path5_stroke" transform="translate(2307.5 -185.667)"/>
</g>
</g>
</g>
<defs>
<path id="path0_stroke" d="M 1.66667 0L 1.66667 -1C 1.16902 -1 0.747096 -0.63407 0.676717 -0.141421L 1.66667 0ZM 13.3333 0L 14.3233 -0.141421C 14.2529 -0.63407 13.831 -1 13.3333 -1L 13.3333 0ZM 15 11.6667L 15 12.6667C 15.2899 12.6667 15.5655 12.5409 15.7555 12.3219C 15.9454 12.1029 16.0309 11.8122 15.9899 11.5252L 15 11.6667ZM 0 11.6667L -0.989949 11.5252C -1.03095 11.8122 -0.945391 12.1029 -0.755454 12.3219C -0.565517 12.5409 -0.289891 12.6667 2.19813e-16 12.6667L 0 11.6667ZM 1.66667 1L 13.3333 1L 13.3333 -1L 1.66667 -1L 1.66667 1ZM 12.3434 0.141421L 14.0101 11.8081L 15.9899 11.5252L 14.3233 -0.141421L 12.3434 0.141421ZM 15 10.6667L 0 10.6667L 0 12.6667L 15 12.6667L 15 10.6667ZM 0.989949 11.8081L 2.65662 0.141421L 0.676717 -0.141421L -0.989949 11.5252L 0.989949 11.8081Z"/>
<path id="path1_stroke" d="M 5.66667 3.33333C 5.66667 3.88562 6.11438 4.33333 6.66667 4.33333C 7.21895 4.33333 7.66667 3.88562 7.66667 3.33333L 5.66667 3.33333ZM -1 3.33333C -1 3.88562 -0.552285 4.33333 0 4.33333C 0.552285 4.33333 1 3.88562 1 3.33333L -1 3.33333ZM 7.66667 3.33333C 7.66667 0.940099 5.72657 -1 3.33333 -1L 3.33333 1C 4.622 1 5.66667 2.04467 5.66667 3.33333L 7.66667 3.33333ZM 3.33333 -1C 0.940099 -1 -1 0.940099 -1 3.33333L 1 3.33333C 1 2.04467 2.04467 1 3.33333 1L 3.33333 -1Z"/>
<path id="path2_fill" fill-rule="evenodd" d="M 0.833333 1.66667C 1.29357 1.66667 1.66667 1.29357 1.66667 0.833333C 1.66667 0.373096 1.29357 0 0.833333 0C 0.373096 0 0 0.373096 0 0.833333C 0 1.29357 0.373096 1.66667 0.833333 1.66667Z"/>
<path id="path3_stroke" d="M 0.833333 2.16667C 1.56971 2.16667 2.16667 1.56971 2.16667 0.833333L 1.16667 0.833333C 1.16667 1.01743 1.01743 1.16667 0.833333 1.16667L 0.833333 2.16667ZM 2.16667 0.833333C 2.16667 0.0969536 1.56971 -0.5 0.833333 -0.5L 0.833333 0.5C 1.01743 0.5 1.16667 0.649238 1.16667 0.833333L 2.16667 0.833333ZM 0.833333 -0.5C 0.0969536 -0.5 -0.5 0.0969536 -0.5 0.833333L 0.5 0.833333C 0.5 0.649238 0.649238 0.5 0.833333 0.5L 0.833333 -0.5ZM -0.5 0.833333C -0.5 1.56971 0.0969536 2.16667 0.833333 2.16667L 0.833333 1.16667C 0.649238 1.16667 0.5 1.01743 0.5 0.833333L -0.5 0.833333Z"/>
<path id="path4_fill" fill-rule="evenodd" d="M 0.833333 1.66667C 1.29357 1.66667 1.66667 1.29357 1.66667 0.833333C 1.66667 0.373096 1.29357 0 0.833333 0C 0.373096 0 0 0.373096 0 0.833333C 0 1.29357 0.373096 1.66667 0.833333 1.66667Z"/>
<path id="path5_stroke" d="M 0.833333 2.16667C 1.56971 2.16667 2.16667 1.56971 2.16667 0.833333L 1.16667 0.833333C 1.16667 1.01743 1.01743 1.16667 0.833333 1.16667L 0.833333 2.16667ZM 2.16667 0.833333C 2.16667 0.0969536 1.56971 -0.5 0.833333 -0.5L 0.833333 0.5C 1.01743 0.5 1.16667 0.649238 1.16667 0.833333L 2.16667 0.833333ZM 0.833333 -0.5C 0.0969537 -0.5 -0.5 0.0969536 -0.5 0.833333L 0.5 0.833333C 0.5 0.649238 0.649238 0.5 0.833333 0.5L 0.833333 -0.5ZM -0.5 0.833333C -0.5 1.56971 0.0969537 2.16667 0.833333 2.16667L 0.833333 1.16667C 0.649238 1.16667 0.5 1.01743 0.5 0.833333L -0.5 0.833333Z"/>
</defs>
</svg>
