<svg width="20" height="18" viewBox="0 0 20 18" version="1.1" xmlns="http://www.w3.org/2000/svg" xmlns:xlink="http://www.w3.org/1999/xlink">
<title>ic_cart</title>
<desc>Created using Figma</desc>
<g id="Canvas" transform="translate(-2798 2818)">
<g id="ic_cart">
<g id="Path 3">
<use xlink:href="#path0_stroke" transform="translate(2799 -2817)" fill="#999999"/>
</g>
<g id="Oval">
<use xlink:href="#path1_fill" transform="translate(2805 -2804)" fill="#999999"/>
</g>
<g id="Oval Copy">
<use xlink:href="#path1_fill" transform="translate(2811 -2804)" fill="#999999"/>
</g>
</g>
</g>
<defs>
<path id="path0_stroke" d="M 0 -1C -0.552285 -1 -1 -0.552285 -1 0C -1 0.552285 -0.552285 1 0 1L 0 -1ZM 4 0L 4.95783 -0.287348C 4.83093 -0.710332 4.44161 -1 4 -1L 4 0ZM 7 10L 6.04217 10.2873C 6.16907 10.7103 6.55839 11 7 11L 7 10ZM 15 10L 15 11C 15.4168 11 15.79 10.7414 15.9363 10.3511L 15 10ZM 18 2L 18.9363 2.35112C 19.0515 2.04403 19.0087 1.69998 18.8219 1.43041C 18.6351 1.16083 18.328 1 18 1L 18 2ZM 10 1C 9.44771 1 9 1.44772 9 2C 9 2.55228 9.44771 3 10 3L 10 1ZM 0 1L 4 1L 4 -1L 0 -1L 0 1ZM 3.04217 0.287348L 6.04217 10.2873L 7.95783 9.71265L 4.95783 -0.287348L 3.04217 0.287348ZM 7 11L 15 11L 15 9L 7 9L 7 11ZM 15.9363 10.3511L 18.9363 2.35112L 17.0637 1.64888L 14.0637 9.64888L 15.9363 10.3511ZM 18 1L 10 1L 10 3L 18 3L 18 1Z"/>
<path id="path1_fill" fill-rule="evenodd" d="M 2 4C 3.10457 4 4 3.10457 4 2C 4 0.89543 3.10457 0 2 0C 0.89543 0 0 0.89543 0 2C 0 3.10457 0.89543 4 2 4Z"/>
</defs>
</svg>
