<?xml version="1.0" encoding="UTF-8"?>
<svg width="24px" height="14px" viewBox="0 0 24 14" version="1.1" xmlns="http://www.w3.org/2000/svg" xmlns:xlink="http://www.w3.org/1999/xlink">
    <!-- Generator: Sketch 46.2 (44496) - http://www.bohemiancoding.com/sketch -->
    <title>ic_car</title>
    <desc>Created with Sketch.</desc>
    <defs></defs>
    <g id="Icons" stroke="none" stroke-width="1" fill="none" fill-rule="evenodd" stroke-linecap="round" stroke-linejoin="round">
        <g id="24-px-Icons" transform="translate(-408.000000, -413.000000)" stroke="#000000">
            <g id="ic_car" transform="translate(408.000000, 408.000000)">
                <g id="Group">
                    <g transform="translate(1.000000, 6.000000)" stroke-width="2">
                        <path d="M14,10 L7,10 C7,8.8954305 6.1045695,8 5,8 C3.8954305,8 3,8.8954305 3,10 L1,10 L0,9 L0,6 L6,4 L9,0 L14,0 L19,0 L22,7 L21,10 L18,10 C18,8.8954305 17.1045695,8 16,8 C14.8954305,8 14,8.8954305 14,10 Z" id="Combined-Shape"></path>
                        <circle id="Oval-Copy-5" cx="5" cy="10" r="2"></circle>
                        <circle id="Oval-Copy-4" cx="16" cy="10" r="2"></circle>
                        <path d="M10,5 L17,5" id="Line"></path>
                    </g>
                </g>
            </g>
        </g>
    </g>
</svg>