<svg width="10" height="18" viewBox="0 0 10 18" version="1.1" xmlns="http://www.w3.org/2000/svg" xmlns:xlink="http://www.w3.org/1999/xlink">
<title>ic_forward</title>
<desc>Created using Figma</desc>
<g id="Canvas" transform="translate(-1397 1295)">
<g id="ic_forward">
<g id="back">
<g id="Line">
<use xlink:href="#path0_stroke" transform="matrix(-1 0 0 1 1406 -1294)"/>
</g>
<g id="Line">
<use xlink:href="#path1_stroke" transform="matrix(-1 0 0 1 1406 -1286)"/>
</g>
</g>
</g>
</g>
<defs>
<path id="path0_stroke" d="M 8.70711 0.707107C 9.09763 0.316583 9.09763 -0.316583 8.70711 -0.707107C 8.31658 -1.09763 7.68342 -1.09763 7.29289 -0.707107L 8.70711 0.707107ZM -0.707107 7.29289C -1.09763 7.68342 -1.09763 8.31658 -0.707107 8.70711C -0.316583 9.09763 0.316583 9.09763 0.707107 8.70711L -0.707107 7.29289ZM 7.29289 -0.707107L -0.707107 7.29289L 0.707107 8.70711L 8.70711 0.707107L 7.29289 -0.707107Z"/>
<path id="path1_stroke" d="M 0.707107 -0.707107C 0.316583 -1.09763 -0.316583 -1.09763 -0.707107 -0.707107C -1.09763 -0.316583 -1.09763 0.316583 -0.707107 0.707107L 0.707107 -0.707107ZM 7.29289 8.70711C 7.68342 9.09763 8.31658 9.09763 8.70711 8.70711C 9.09763 8.31658 9.09763 7.68342 8.70711 7.29289L 7.29289 8.70711ZM -0.707107 0.707107L 7.29289 8.70711L 8.70711 7.29289L 0.707107 -0.707107L -0.707107 0.707107Z"/>
</defs>
</svg>
