<svg width="18" height="18" viewBox="0 0 18 18" version="1.1" xmlns="http://www.w3.org/2000/svg" xmlns:xlink="http://www.w3.org/1999/xlink">
<title>ic_location</title>
<desc>Created using Figma</desc>
<g id="Canvas" transform="translate(-1104 797)">
<rect x="1104" y="-797" width="18" height="18" fill="#FFFFFF"/>
<clipPath id="clip-0" clip-rule="evenodd">
<path d="M 70 -2839L 1510 -2839L 1510 -549L 70 -549L 70 -2839Z" fill="#FFFFFF"/>
</clipPath>
<g id="Main" clip-path="url(#clip-0)">
<g id="Footer">
<g id="Footer">
<g id="Mask">
<use xlink:href="#path0_fill" transform="translate(70 -849)" fill="#161616"/>
</g>
<g id="Group">
<g id="ic_location">
<g id="location">
<g id="Path">
<use xlink:href="#path1_stroke" transform="matrix(0.707107 0.707107 -0.707107 0.707107 1116.38 -799.207)" fill="#FF0000"/>
</g>
</g>
</g>
</g>
</g>
</g>
</g>
</g>
<defs>
<path id="path0_fill" fill-rule="evenodd" d="M 0 0L 1440 0L 1440 300L 0 300L 0 0Z"/>
<path id="path1_stroke" d="M 5.86428 0L 6.78984 -0.378599C 6.63503 -0.757073 6.26539 -1.00316 5.85648 -0.99997C 5.44758 -0.99678 5.08182 -0.744958 4.93293 -0.364115L 5.86428 0ZM 0 15L -0.931354 14.6359C -1.0819 15.021 -0.979938 15.459 -0.6748 15.738C -0.369661 16.017 0.0757198 16.0795 0.445822 15.8951L 0 15ZM 5.86428 12.0792L 6.2941 11.1763C 6.01653 11.0442 5.69363 11.0471 5.41846 11.1841L 5.86428 12.0792ZM 12 15L 11.5702 15.9029C 11.9432 16.0805 12.3869 16.0104 12.687 15.7266C 12.9872 15.4428 13.0819 15.0037 12.9256 14.6214L 12 15ZM 4.93293 -0.364115L -0.931354 14.6359L 0.931354 15.3641L 6.79564 0.364115L 4.93293 -0.364115ZM 0.445822 15.8951L 6.31011 12.9744L 5.41846 11.1841L -0.445822 14.1049L 0.445822 15.8951ZM 5.43447 12.9822L 11.5702 15.9029L 12.4298 14.0971L 6.2941 11.1763L 5.43447 12.9822ZM 12.9256 14.6214L 6.78984 -0.378599L 4.93872 0.378599L 11.0744 15.3786L 12.9256 14.6214Z"/>
</defs>
</svg>
