<svg width="24" height="22" viewBox="0 0 24 22" version="1.1" xmlns="http://www.w3.org/2000/svg" xmlns:xlink="http://www.w3.org/1999/xlink">
<title>ic_profile_info</title>
<desc>Created using Figma</desc>
<g id="Canvas" transform="translate(-5971 1127)">
<g id="ic_profile_info">
<g id="Group">
<g id="Rectangle 2">
<use xlink:href="#path0_stroke" transform="translate(5972 -1126)"/>
</g>
<g id="Oval 2">
<use xlink:href="#path1_stroke" transform="translate(5978 -1120)"/>
</g>
<g id="Oval">
<use xlink:href="#path2_stroke" transform="translate(5976 -1116)"/>
</g>
<g id="Line">
<use xlink:href="#path3_stroke" transform="translate(5988 -1119)"/>
</g>
<g id="Line Copy">
<use xlink:href="#path3_stroke" transform="translate(5988 -1115)"/>
</g>
</g>
</g>
</g>
<defs>
<path id="path0_stroke" d="M 0 0L 0 -1C -0.552285 -1 -1 -0.552285 -1 2.22045e-16L 0 0ZM 7 0L 7.70711 -0.707107C 7.51957 -0.894643 7.26522 -1 7 -1L 7 0ZM 9 2L 8.29289 2.70711C 8.48043 2.89464 8.73478 3 9 3L 9 2ZM 22 2L 23 2C 23 1.44772 22.5523 1 22 1L 22 2ZM 22 20L 22 21C 22.5523 21 23 20.5523 23 20L 22 20ZM 15 20L 14.2929 20.7071C 14.4804 20.8946 14.7348 21 15 21L 15 20ZM 13 18L 13.7071 17.2929C 13.5196 17.1054 13.2652 17 13 17L 13 18ZM 0 18L -1 18C -1 18.5523 -0.552285 19 2.22045e-16 19L 0 18ZM 0 1L 7 1L 7 -1L 0 -1L 0 1ZM 6.29289 0.707107L 8.29289 2.70711L 9.70711 1.29289L 7.70711 -0.707107L 6.29289 0.707107ZM 9 3L 22 3L 22 1L 9 1L 9 3ZM 21 2L 21 20L 23 20L 23 2L 21 2ZM 22 19L 15 19L 15 21L 22 21L 22 19ZM 15.7071 19.2929L 13.7071 17.2929L 12.2929 18.7071L 14.2929 20.7071L 15.7071 19.2929ZM 13 17L 0 17L 0 19L 13 19L 13 17ZM 1 18L 1 0L -1 0L -1 18L 1 18Z"/>
<path id="path1_stroke" d="M 2 5C 3.65685 5 5 3.65685 5 2L 3 2C 3 2.55228 2.55228 3 2 3L 2 5ZM 5 2C 5 0.343146 3.65685 -1 2 -1L 2 1C 2.55228 1 3 1.44772 3 2L 5 2ZM 2 -1C 0.343146 -1 -1 0.343146 -1 2L 1 2C 1 1.44772 1.44772 1 2 1L 2 -1ZM -1 2C -1 3.65685 0.343146 5 2 5L 2 3C 1.44772 3 1 2.55228 1 2L -1 2Z"/>
<path id="path2_stroke" d="M 7 4C 7 4.55228 7.44772 5 8 5C 8.55228 5 9 4.55228 9 4L 7 4ZM -1 4C -1 4.55228 -0.552285 5 0 5C 0.552285 5 1 4.55228 1 4L -1 4ZM 9 4C 9 1.23858 6.76142 -1 4 -1L 4 1C 5.65685 1 7 2.34315 7 4L 9 4ZM 4 -1C 1.23858 -1 -1 1.23858 -1 4L 1 4C 1 2.34315 2.34315 1 4 1L 4 -1Z"/>
<path id="path3_stroke" d="M 0 0C -0.552285 0 -1 0.447715 -1 1C -1 1.55228 -0.552285 2 0 2L 0 0ZM 2 2C 2.55228 2 3 1.55228 3 1C 3 0.447715 2.55228 0 2 0L 2 2ZM 0 2L 2 2L 2 0L 0 0L 0 2Z"/>
</defs>
</svg>
