<svg width="18" height="18" viewBox="0 0 18 18" version="1.1" xmlns="http://www.w3.org/2000/svg" xmlns:xlink="http://www.w3.org/1999/xlink">
<title>ic_phone</title>
<desc>Created using Figma</desc>
<g id="Canvas" transform="translate(-809 793)">
<rect x="809" y="-793" width="18" height="18" fill="#FFFFFF"/>
<clipPath id="clip-0" clip-rule="evenodd">
<path d="M 70 -2839L 1510 -2839L 1510 -549L 70 -549L 70 -2839Z" fill="#FFFFFF"/>
</clipPath>
<g id="Main" clip-path="url(#clip-0)">
<g id="Footer">
<g id="Footer">
<g id="Mask">
<use xlink:href="#path0_fill" transform="translate(70 -849)" fill="#161616"/>
</g>
<g id="ic_phone">
<g id="phone">
<g id="Oval 2">
<use xlink:href="#path1_stroke" transform="translate(810 -792)" fill="#FF0000"/>
</g>
<g id="Combined Shape">
<use xlink:href="#path2_stroke" transform="translate(810 -792)" fill="#FF0000"/>
</g>
<g id="Combined Shape">
<use xlink:href="#path3_stroke" transform="translate(820 -782)" fill="#FF0000"/>
</g>
</g>
</g>
</g>
</g>
</g>
</g>
<defs>
<path id="path0_fill" fill-rule="evenodd" d="M 0 0L 1440 0L 1440 300L 0 300L 0 0Z"/>
<path id="path1_stroke" d="M 1 0C 1 -0.552285 0.552285 -1 0 -1C -0.552285 -1 -1 -0.552285 -1 0L 1 0ZM -1 0C -1 9.38884 6.61116 17 16 17L 16 15C 7.71573 15 1 8.28427 1 0L -1 0Z"/>
<path id="path2_stroke" d="M 0 1.12969e-08L -1.88281e-09 -1C -0.552285 -1 -1 -0.552285 -1 1.12969e-08L 0 1.12969e-08ZM 6 0L 7 0C 7 -0.265216 6.89464 -0.51957 6.70711 -0.707107C 6.51957 -0.894643 6.26522 -1 6 -1L 6 0ZM 6 5L 6.20246 5.97929C 6.66689 5.88327 7 5.47425 7 5L 6 5ZM 1.16303 6L 0.236096 6.37522C 0.417304 6.82287 0.892551 7.07707 1.36549 6.97929L 1.16303 6ZM 1.88281e-09 1L 6 1L 6 -1L -1.88281e-09 -1L 1.88281e-09 1ZM 5 0L 5 5L 7 5L 7 0L 5 0ZM 5.79754 4.02071L 0.960574 5.02071L 1.36549 6.97929L 6.20246 5.97929L 5.79754 4.02071ZM 2.08997 5.62478C 1.37043 3.85841 0.994946 2.02139 1 1.12969e-08L -1 1.12969e-08C -0.994946 2.22221 -0.544397 4.43586 0.236096 6.37522L 2.08997 5.62478Z"/>
<path id="path3_stroke" d="M 6 6L 6 7C 6.55228 7 7 6.55228 7 6L 6 6ZM 6 0L 7 0C 7 -0.552285 6.55228 -1 6 -1L 6 0ZM 1 0L 1 -1C 0.525751 -1 0.116726 -0.666887 0.0207094 -0.20246L 1 0ZM 0 4.83697L -0.979291 4.63451C -1.07707 5.10745 -0.822874 5.5827 -0.375215 5.7639L 0 4.83697ZM 7 6L 7 0L 5 0L 5 6L 7 6ZM 6 -1L 1 -1L 1 1L 6 1L 6 -1ZM 0.0207094 -0.20246L -0.979291 4.63451L 0.979291 5.03943L 1.97929 0.20246L 0.0207094 -0.20246ZM -0.375215 5.7639C 1.56414 6.5444 3.77779 6.99495 6 7L 6 5C 3.97861 5.00505 2.14159 4.62957 0.375215 3.91003L -0.375215 5.7639Z"/>
</defs>
</svg>
