<svg width="22" height="22" viewBox="0 0 22 22" version="1.1" xmlns="http://www.w3.org/2000/svg" xmlns:xlink="http://www.w3.org/1999/xlink">
<title>ic_payreceipt</title>
<desc>Created using Figma</desc>
<g id="Canvas" transform="translate(-5972 1082)">
<g id="ic_payreceipt">
<g id="Group">
<g id="Rectangle 2">
<use xlink:href="#path0_stroke" transform="translate(5975 -1081)"/>
</g>
<g id="Line">
<use xlink:href="#path1_stroke" transform="translate(5973 -1082)"/>
</g>
<g id="Line">
<use xlink:href="#path2_stroke" transform="translate(5979 -1077)"/>
</g>
<g id="Line">
<use xlink:href="#path2_stroke" transform="translate(5979 -1073)"/>
</g>
<g id="Line">
<use xlink:href="#path3_stroke" transform="translate(5979 -1069)"/>
</g>
<g id="Line Copy">
<use xlink:href="#path3_stroke" transform="translate(5985 -1069)"/>
</g>
</g>
</g>
</g>
<defs>
<path id="path0_stroke" d="M 0 0L 0 -1C -0.552285 -1 -1 -0.552285 -1 2.22045e-16L 0 0ZM 16 0L 17 0C 17 -0.552285 16.5523 -1 16 -1L 16 0ZM 16 20L 15.2929 20.7071C 15.5789 20.9931 16.009 21.0787 16.3827 20.9239C 16.7564 20.7691 17 20.4045 17 20L 16 20ZM 14 18L 14.7071 17.2929C 14.3166 16.9024 13.6834 16.9024 13.2929 17.2929L 14 18ZM 12 20L 11.2929 20.7071C 11.6834 21.0976 12.3166 21.0976 12.7071 20.7071L 12 20ZM 10 18L 10.7071 17.2929C 10.3166 16.9024 9.68342 16.9024 9.29289 17.2929L 10 18ZM 8 20L 7.29289 20.7071C 7.68342 21.0976 8.31658 21.0976 8.70711 20.7071L 8 20ZM 6 18L 6.70711 17.2929C 6.31658 16.9024 5.68342 16.9024 5.29289 17.2929L 6 18ZM 4 20L 3.29289 20.7071C 3.68342 21.0976 4.31658 21.0976 4.70711 20.7071L 4 20ZM 2 18L 2.70711 17.2929C 2.31658 16.9024 1.68342 16.9024 1.29289 17.2929L 2 18ZM 0 20L -1 20C -1 20.4045 -0.756358 20.7691 -0.382683 20.9239C -0.00900904 21.0787 0.421109 20.9931 0.707107 20.7071L 0 20ZM 0 1L 16 1L 16 -1L 0 -1L 0 1ZM 15 0L 15 20L 17 20L 17 0L 15 0ZM 16.7071 19.2929L 14.7071 17.2929L 13.2929 18.7071L 15.2929 20.7071L 16.7071 19.2929ZM 13.2929 17.2929L 11.2929 19.2929L 12.7071 20.7071L 14.7071 18.7071L 13.2929 17.2929ZM 12.7071 19.2929L 10.7071 17.2929L 9.29289 18.7071L 11.2929 20.7071L 12.7071 19.2929ZM 9.29289 17.2929L 7.29289 19.2929L 8.70711 20.7071L 10.7071 18.7071L 9.29289 17.2929ZM 8.70711 19.2929L 6.70711 17.2929L 5.29289 18.7071L 7.29289 20.7071L 8.70711 19.2929ZM 5.29289 17.2929L 3.29289 19.2929L 4.70711 20.7071L 6.70711 18.7071L 5.29289 17.2929ZM 4.70711 19.2929L 2.70711 17.2929L 1.29289 18.7071L 3.29289 20.7071L 4.70711 19.2929ZM 1.29289 17.2929L -0.707107 19.2929L 0.707107 20.7071L 2.70711 18.7071L 1.29289 17.2929ZM 1 20L 1 0L -1 0L -1 20L 1 20Z"/>
<path id="path1_stroke" d="M 0 0C -0.552285 0 -1 0.447715 -1 1C -1 1.55228 -0.552285 2 0 2L 0 0ZM 20 2C 20.5523 2 21 1.55228 21 1C 21 0.447715 20.5523 0 20 0L 20 2ZM 0 2L 20 2L 20 0L 0 0L 0 2Z"/>
<path id="path2_stroke" d="M 0 0C -0.552285 0 -1 0.447715 -1 1C -1 1.55228 -0.552285 2 0 2L 0 0ZM 8 2C 8.55228 2 9 1.55228 9 1C 9 0.447715 8.55228 0 8 0L 8 2ZM 0 2L 8 2L 8 0L 0 0L 0 2Z"/>
<path id="path3_stroke" d="M 0 0C -0.552285 0 -1 0.447715 -1 1C -1 1.55228 -0.552285 2 0 2L 0 0ZM 2 2C 2.55228 2 3 1.55228 3 1C 3 0.447715 2.55228 0 2 0L 2 2ZM 0 2L 2 2L 2 0L 0 0L 0 2Z"/>
</defs>
</svg>
