<svg width="24" height="24" viewBox="0 0 22 21" version="1.1" xmlns="http://www.w3.org/2000/svg" xmlns:xlink="http://www.w3.org/1999/xlink">
<title>ic_swipe</title>
<desc>Created using Figma</desc>
<g id="Canvas" transform="translate(-748 394)">
<g id="ic_swipe">
<g id="Combined Shape">
<use xlink:href="#path0_fill" transform="translate(749 -388)" fill="#FFFFFF"/>
<use xlink:href="#path1_stroke" transform="translate(749 -388)"/>
</g>
<g id="Rectangle Copy 3">
<use xlink:href="#path2_fill" transform="matrix(0.965926 0.258819 -0.258819 0.965926 755.623 -393)" fill="#FFFFFF"/>
<use xlink:href="#path3_stroke" transform="matrix(0.965926 0.258819 -0.258819 0.965926 755.623 -393)"/>
</g>
</g>
</g>
<defs>
<path id="path0_fill" fill-rule="evenodd" d="M 5.28375 0L 2 0C 0.895447 0 0 0.895416 0 2L 0 12C 0 13.1046 0.895447 14 2 14L 12 14C 13.1046 14 14 13.1046 14 12L 14 11.4704L 4.93188 9.04059C 3.86493 8.75473 3.23175 7.65805 3.51764 6.59109L 5.28375 0Z"/>
<path id="path1_stroke" d="M 5.28375 0L 6.24968 0.258824C 6.33014 -0.0414731 6.26636 -0.362113 6.07711 -0.608759C 5.88785 -0.855406 5.59464 -1 5.28375 -1L 5.28375 0ZM 14 11.4704L 15 11.4704C 15 11.0178 14.696 10.6216 14.2588 10.5045L 14 11.4704ZM 4.93188 9.04059L 5.19071 8.07466L 5.19068 8.07466L 4.93188 9.04059ZM 3.51764 6.59109L 2.55171 6.33227L 2.55171 6.33228L 3.51764 6.59109ZM 2 1L 5.28375 1L 5.28375 -1L 2 -1L 2 1ZM 1 2C 1 1.44771 1.44772 1 2 1L 2 -1C 0.343172 -1 -1 0.343122 -1 2L 1 2ZM 1 12L 1 2L -1 2L -1 12L 1 12ZM 2 13C 1.44772 13 1 12.5523 1 12L -1 12C -1 13.6569 0.343172 15 2 15L 2 13ZM 12 13L 2 13L 2 15L 12 15L 12 13ZM 13 12C 13 12.5523 12.5523 13 12 13L 12 15C 13.6568 15 15 13.6569 15 12L 13 12ZM 13 11.4704L 13 12L 15 12L 15 11.4704L 13 11.4704ZM 14.2588 10.5045L 5.19071 8.07466L 4.67306 10.0065L 13.7412 12.4363L 14.2588 10.5045ZM 5.19068 8.07466C 4.65721 7.93173 4.34062 7.3834 4.48357 6.84991L 2.55171 6.33228C 2.12288 7.9327 3.07265 9.57773 4.67309 10.0065L 5.19068 8.07466ZM 4.48356 6.84992L 6.24968 0.258824L 4.31783 -0.258824L 2.55171 6.33227L 4.48356 6.84992Z"/>
<path id="path2_fill" fill-rule="evenodd" d="M 0 2C 0 0.895431 0.895431 0 2 0L 12 0C 13.1046 0 14 0.895431 14 2L 14 12C 14 13.1046 13.1046 14 12 14L 2 14C 0.895431 14 0 13.1046 0 12L 0 2Z"/>
<path id="path3_stroke" d="M 2 1L 12 1L 12 -1L 2 -1L 2 1ZM 13 2L 13 12L 15 12L 15 2L 13 2ZM 12 13L 2 13L 2 15L 12 15L 12 13ZM 1 12L 1 2L -1 2L -1 12L 1 12ZM 2 -1C 0.343146 -1 -1 0.343146 -1 2L 1 2C 1 1.44772 1.44772 1 2 1L 2 -1ZM 12 1C 12.5523 1 13 1.44772 13 2L 15 2C 15 0.343146 13.6569 -1 12 -1L 12 1ZM 13 12C 13 12.5523 12.5523 13 12 13L 12 15C 13.6569 15 15 13.6569 15 12L 13 12ZM 2 13C 1.44772 13 1 12.5523 1 12L -1 12C -1 13.6569 0.343146 15 2 15L 2 13Z"/>
</defs>
</svg>
