<svg width="24" height="24" viewBox="0 0 24 24" version="1.1" xmlns="http://www.w3.org/2000/svg" xmlns:xlink="http://www.w3.org/1999/xlink">
<title>ic_username</title>
<desc>Created using Figma</desc>
<g id="Canvas" transform="translate(-178 -6028)">
<g id="ic_username">
<g id="ic_username">
<g id="Profile">
<g id="Oval">
<use xlink:href="#path0_stroke" transform="translate(186 6032)"/>
</g>
<g id="Oval 2">
<use xlink:href="#path1_stroke" transform="translate(182 6040)"/>
</g>
</g>
</g>
</g>
</g>
<defs>
<path id="path0_stroke" d="M 4 9C 6.76142 9 9 6.76142 9 4L 7 4C 7 5.65685 5.65685 7 4 7L 4 9ZM 9 4C 9 1.23858 6.76142 -1 4 -1L 4 1C 5.65685 1 7 2.34315 7 4L 9 4ZM 4 -1C 1.23858 -1 -1 1.23858 -1 4L 1 4C 1 2.34315 2.34315 1 4 1L 4 -1ZM -1 4C -1 6.76142 1.23858 9 4 9L 4 7C 2.34315 7 1 5.65685 1 4L -1 4Z"/>
<path id="path1_stroke" d="M 15 8C 15 8.55229 15.4477 9 16 9C 16.5523 9 17 8.55229 17 8L 15 8ZM -1 8C -1 8.55229 -0.552285 9 0 9C 0.552285 9 1 8.55229 1 8L -1 8ZM 17 8C 17 3.02944 12.9706 -1 8 -1L 8 1C 11.866 1 15 4.13401 15 8L 17 8ZM 8 -1C 3.02944 -1 -1 3.02944 -1 8L 1 8C 1 4.13401 4.13401 1 8 1L 8 -1Z"/>
</defs>
</svg>
