<svg width="21" height="9" viewBox="0 0 21 9" version="1.1" xmlns="http://www.w3.org/2000/svg" xmlns:xlink="http://www.w3.org/1999/xlink">
<title>ic_visibility</title>
<desc>Created using Figma</desc>
<g id="Canvas" transform="translate(-5984 1897)">
<g id="ic_visibility">
<g id="visibility">
<g id="Line">
<use xlink:href="#path0_stroke" transform="translate(5985 -1897)"/>
</g>
<g id="Oval">
<use xlink:href="#path1_stroke" transform="translate(5987 -1896)"/>
</g>
<g id="Oval 2">
<use xlink:href="#path2_stroke" transform="translate(5991 -1896)"/>
</g>
</g>
</g>
</g>
<defs>
<path id="path0_stroke" d="M 0 0C -0.552285 0 -1 0.447715 -1 1C -1 1.55228 -0.552285 2 0 2L 0 0ZM 18.0278 2C 18.58 2 19.0278 1.55228 19.0278 1C 19.0278 0.447715 18.58 0 18.0278 0L 18.0278 2ZM 0 2L 18.0278 2L 18.0278 0L 0 0L 0 2Z"/>
<path id="path1_stroke" d="M 1 0C 1 -0.552285 0.552285 -1 0 -1C -0.552285 -1 -1 -0.552285 -1 0L 1 0ZM 15 0C 15 -0.552285 14.5523 -1 14 -1C 13.4477 -1 13 -0.552285 13 0L 15 0ZM -1 0C -1 4.41828 2.58172 8 7 8L 7 6C 3.68629 6 1 3.31371 1 0L -1 0ZM 7 8C 11.4183 8 15 4.41828 15 0L 13 0C 13 3.31371 10.3137 6 7 6L 7 8Z"/>
<path id="path2_stroke" d="M 1 0C 1 -0.552285 0.552285 -1 0 -1C -0.552285 -1 -1 -0.552285 -1 0L 1 0ZM 7 0C 7 -0.552285 6.55228 -1 6 -1C 5.44772 -1 5 -0.552285 5 0L 7 0ZM -1 0C -1 2.20914 0.790861 4 3 4L 3 2C 1.89543 2 1 1.10457 1 0L -1 0ZM 3 4C 5.20914 4 7 2.20914 7 0L 5 0C 5 1.10457 4.10457 2 3 2L 3 4Z"/>
</defs>
</svg>
