<?xml version="1.0" encoding="UTF-8"?>
<svg width="12px" height="6px" viewBox="0 0 12 6" version="1.1" xmlns="http://www.w3.org/2000/svg" xmlns:xlink="http://www.w3.org/1999/xlink">
    <title>red_arrow</title>
    <desc>Created with Sketch.</desc>
    <defs></defs>
    <g id="Поиск-(Г)" stroke="none" stroke-width="1" fill="none" fill-rule="evenodd">
        <g id="Выбранный-артикул" transform="translate(-364.000000, -206.000000)" fill="#FF0000">
            <g id="Group-9" transform="translate(153.000000, 140.000000)">
                <g id="Group-4-Copy" transform="translate(20.000000, 49.000000)">
                    <path d="M202.683516,21.3081061 L197.764227,17.290439 C197.561613,17.1045779 197.286598,17 197.000236,17 C196.713875,17 196.43886,17.1045779 196.236245,17.290439 L191.316686,21.3081061 C190.894438,21.6951929 190.894438,22.3229079 191.316686,22.7094991 C191.738934,23.0968336 192.42323,23.0968336 192.844668,22.7094991 L197.000236,19.2181492 L201.155535,22.7094991 C201.365983,22.9030424 201.64316,22.999938 201.919526,22.999938 C202.195621,22.999938 202.472527,22.9030424 202.683516,22.7094991 C203.105495,22.3229079 203.105495,21.6951929 202.683516,21.3081061 Z" id="red_arrow" transform="translate(197.000000, 20.000000) scale(1, -1) translate(-197.000000, -20.000000) "></path>
                </g>
            </g>
        </g>
    </g>
</svg>