<svg width="30" height="30" viewBox="0 0 30 30" version="1.1" xmlns="http://www.w3.org/2000/svg" xmlns:xlink="http://www.w3.org/1999/xlink">
<title>settings</title>
<desc>Created using Figma</desc>
<g id="Canvas" transform="translate(-448 2185)">
<g id="settings">
<g id="settings">
<use xlink:href="#path0_fill" transform="translate(448 -2185)" fill="#FF0000"/>
</g>
</g>
</g>
<defs>
<path id="path0_fill" fill-rule="evenodd" d="M 26.3453 11.5576L 28.5191 11.9263C 29.3771 12.0725 30 12.8098 30 13.6619L 30 16.3191C 30 17.1902 29.3771 17.9275 28.5191 18.0737L 26.3517 18.436C 26.1229 19.1799 25.8305 19.8918 25.4619 20.5786L 26.7394 22.3777C 27.2479 23.0896 27.1653 24.0496 26.5487 24.6663L 24.6737 26.5417C 24.3369 26.8787 23.8919 27.063 23.4153 27.063C 23.0466 27.063 22.6907 26.9485 22.3856 26.7324L 20.5932 25.4546C 19.9068 25.8232 19.1886 26.1221 18.4513 26.3445L 18.0826 28.5188C 17.9364 29.377 17.1992 30 16.3284 30L 13.6716 30C 12.8008 30 12.0636 29.377 11.9174 28.5188L 11.5551 26.3508C 10.8432 26.1348 10.1441 25.8486 9.48306 25.499L 7.66525 26.7896C 7.36017 27.0056 7.00424 27.1201 6.63559 27.1201C 6.15891 27.1201 5.71399 26.9358 5.37711 26.5989L 3.50211 24.7234C 2.88559 24.1067 2.80298 23.147 3.31143 22.4348L 4.57626 20.6611C 4.20126 19.981 3.90256 19.2625 3.67374 18.5251L 1.48093 18.1501C 0.622894 18.0039 0 17.2664 0 16.3955L 0 13.738C 0 12.8672 0.622894 12.1296 1.48727 11.9961L 3.63559 11.6338C 3.85168 10.8901 4.14407 10.1716 4.50635 9.48511L 3.21609 7.66699C 2.70764 6.95483 2.79025 5.99487 3.40677 5.37817L 5.28177 3.50293C 5.61865 3.16602 6.06357 2.98145 6.54025 2.98145C 6.90891 2.98145 7.26483 3.09595 7.56992 3.31226L 9.34323 4.57715C 10.0233 4.20215 10.7415 3.90332 11.4788 3.67456L 11.8538 1.4812C 12 0.623047 12.7373 0 13.6081 0L 16.2648 0C 17.1356 0 17.8729 0.623047 18.0063 1.48755L 18.3687 3.63647C 19.1377 3.86523 19.875 4.17041 20.5805 4.54541L 22.3792 3.26758C 22.6843 3.05151 23.0403 2.93701 23.4089 2.93701C 23.8856 2.93701 24.3305 3.12134 24.6674 3.45825L 26.5424 5.33374C 27.1589 5.95044 27.2415 6.9104 26.7331 7.62231L 25.4555 9.41504C 25.8242 10.1018 26.1229 10.8201 26.3453 11.5576ZM 27.9724 16.5452C 28.0905 16.5264 28.1776 16.4207 28.1776 16.3025L 28.1776 13.71C 28.1776 13.5918 28.0905 13.4863 27.9724 13.4675L 25.3804 13.0261C 25.0883 12.9763 24.8583 12.7651 24.7837 12.479C 24.5475 11.5652 24.187 10.6885 23.7021 9.87402C 23.553 9.61914 23.5654 9.302 23.7394 9.05957L 25.2623 6.9209C 25.3369 6.82153 25.3245 6.69092 25.2375 6.60376L 23.4038 4.76978C 23.3416 4.70752 23.267 4.69507 23.2297 4.69507C 23.1924 4.69507 23.1427 4.70142 23.0868 4.73877L 20.9423 6.26196C 20.6999 6.42969 20.3829 6.44214 20.1281 6.29297C 19.2951 5.80176 18.4001 5.43506 17.4615 5.19873C 17.1755 5.12427 16.958 4.88794 16.9083 4.5957L 16.4794 2.02173C 16.4607 1.90381 16.355 1.81665 16.2369 1.81665L 13.6387 1.81665C 13.5206 1.81665 13.4149 1.90381 13.3963 2.02173L 12.955 4.63306C 12.9053 4.91895 12.6877 5.15527 12.408 5.22998C 11.4943 5.46606 10.6178 5.83911 9.80978 6.32397C 9.55493 6.47949 9.23792 6.46704 8.99551 6.29297L 6.86969 4.77612C 6.81375 4.73877 6.76404 4.73242 6.72675 4.73242C 6.68945 4.73242 6.61484 4.74487 6.5527 4.80713L 4.72525 6.64746C 4.64444 6.73438 4.63199 6.86499 4.70038 6.96436L 6.22946 9.12183C 6.39731 9.36426 6.41595 9.67505 6.26675 9.92993C 5.78815 10.7507 5.43384 11.6272 5.20386 12.5413C 5.12927 12.8271 4.89307 13.0449 4.60092 13.0945L 2.02756 13.5234C 1.90948 13.5422 1.82245 13.6479 1.82245 13.7661L 1.82245 16.3647C 1.82245 16.4829 1.90948 16.5886 2.02756 16.6072L 4.63821 17.0486C 4.92413 17.0984 5.16034 17.3159 5.23492 17.5957C 5.47113 18.5098 5.84409 19.3862 6.32892 20.1946C 6.48431 20.4495 6.47189 20.7666 6.29785 21.009L 4.78119 23.1353C 4.7066 23.2346 4.71902 23.3652 4.80603 23.4524L 6.65213 25.2925C 6.71429 25.3547 6.78888 25.3672 6.8262 25.3672C 6.86349 25.3672 6.91321 25.3611 6.96915 25.3237L 9.12604 23.7942C 9.25037 23.7009 9.40576 23.6575 9.55493 23.6575C 9.67926 23.6575 9.80978 23.6885 9.92789 23.7568C 10.7297 24.217 11.5875 24.5713 12.4764 24.8015C 12.7623 24.8699 12.9736 25.106 13.0234 25.3982L 13.4585 27.9846C 13.4771 28.1028 13.5828 28.1897 13.7009 28.1897L 16.2991 28.1897C 16.4172 28.1897 16.5229 28.1028 16.5415 27.9846L 16.9828 25.3921C 17.0326 25.0999 17.2439 24.8699 17.5298 24.7952C 18.4436 24.5588 19.32 24.1982 20.1343 23.7134C 20.3891 23.5642 20.7061 23.5767 20.9485 23.7507L 23.0868 25.2739C 23.1427 25.3113 23.1924 25.3174 23.2297 25.3174C 23.267 25.3174 23.3416 25.3049 23.4038 25.2429L 25.2375 23.4087C 25.3183 23.3218 25.3307 23.1912 25.2623 23.0918L 23.7394 20.9468C 23.5716 20.7043 23.5592 20.3872 23.7084 20.1323C 24.1932 19.3179 24.5537 18.4414 24.7899 17.5273C 24.8583 17.2415 25.0945 17.03 25.3866 16.9802L 27.9724 16.5452ZM 15 17.7885C 16.5399 17.7885 17.7883 16.5401 17.7883 15.0002C 17.7883 13.4603 16.5399 12.2119 15 12.2119C 13.4601 12.2119 12.2117 13.4603 12.2117 15.0002C 12.2117 16.5401 13.4601 17.7885 15 17.7885Z"/>
</defs>
</svg>
