<svg width="31" height="28" viewBox="0 0 31 28" version="1.1" xmlns="http://www.w3.org/2000/svg" xmlns:xlink="http://www.w3.org/1999/xlink">
<title>speech-bubble-1</title>
<desc>Created using Figma</desc>
<g id="Canvas" transform="translate(-1032 2184)">
<g id="speech-bubble-1">
<use xlink:href="#path0_fill" transform="translate(1032 -2184)" fill="#FF0000"/>
</g>
</g>
<defs>
<path id="path0_fill" fill-rule="evenodd" d="M 26.4265 4.0662C 23.4988 1.44242 19.6206 0 15.5 0C 11.3794 0 7.50123 1.44242 4.57346 4.0662C 1.62654 6.70956 0 10.2406 0 14C 0 17.0545 1.11626 20.0373 3.15103 22.4587C 2.72366 23.4182 2.09856 24.1818 1.28848 24.7235C 0.873868 25.0042 0.676132 25.5002 0.784568 25.9963C 0.893004 26.4858 1.27572 26.8448 1.76049 26.91C 2.25165 26.9818 2.7428 27.0145 3.24033 27.0145C 4.80946 27.0145 6.23827 26.6685 7.50123 25.9897C 9.91235 27.3082 12.6679 28 15.5 28C 19.6206 28 23.4988 26.5576 26.4265 23.9338C 29.3735 21.2904 31 17.7594 31 14C 31 10.2406 29.3735 6.70956 26.4265 4.0662ZM 15.5 26.4335C 12.7827 26.4335 10.1484 25.7352 7.87121 24.4102C 7.7564 24.345 7.62245 24.3058 7.49488 24.3058C 7.36092 24.3058 7.2206 24.345 7.0994 24.4168C 5.98953 25.1021 4.68829 25.448 3.23397 25.448C 3.11916 25.448 2.99796 25.448 2.88315 25.4415C 3.70599 24.6909 4.33747 23.7314 4.75208 22.5762C 4.85413 22.3021 4.79035 21.9888 4.59899 21.7734C 2.59611 19.5478 1.53088 16.8587 1.53088 14C 1.53088 7.1403 7.79467 1.56641 15.5 1.56641C 23.2054 1.56641 29.4692 7.14683 29.4692 14C 29.4692 20.8596 23.2054 26.4335 15.5 26.4335ZM 18.3321 8.10638C 17.286 8.10638 16.2973 8.47188 15.5 9.13762C 14.7026 8.46535 13.7076 8.09985 12.6615 8.09985C 11.4687 8.09985 10.3461 8.57631 9.49771 9.44438C 8.64935 10.3124 8.18372 11.4612 8.18372 12.6882C 8.18372 13.9087 8.64935 15.064 9.49771 15.9255L 14.5559 21.1013C 14.8047 21.3558 15.1428 21.4994 15.5 21.4994C 15.8572 21.4994 16.1889 21.3558 16.444 21.1013L 21.4959 15.932C 22.3442 15.064 22.8098 13.9152 22.8098 12.6882C 22.8098 11.4612 22.3442 10.3124 21.4959 9.44438C 20.6539 8.58284 19.5312 8.10638 18.3321 8.10638ZM 20.4115 14.829L 15.5 19.8546L 10.5884 14.8159C 10.0335 14.2481 9.72095 13.4844 9.72095 12.6816C 9.72095 11.8788 10.0271 11.1152 10.5821 10.5474C 11.137 9.97955 11.8769 9.66626 12.6615 9.66626C 13.4524 9.66626 14.1923 9.97955 14.7473 10.5539L 14.9578 10.7693C 15.1045 10.9194 15.2958 10.9977 15.5 10.9977C 15.7041 10.9977 15.8954 10.9129 16.0421 10.7693L 16.2463 10.5604C 16.8012 9.98607 17.5475 9.67279 18.3321 9.67279C 19.1166 9.67279 19.8565 9.98607 20.4179 10.5539C 20.9728 11.1217 21.279 11.8854 21.279 12.6882C 21.279 13.4975 20.9728 14.2546 20.4115 14.829Z"/>
</defs>
</svg>
