<svg width="20" height="20" viewBox="0 0 20 20" version="1.1" xmlns="http://www.w3.org/2000/svg" xmlns:xlink="http://www.w3.org/1999/xlink">
<title>Trash</title>
<desc>Created using Figma</desc>
<g id="Canvas" transform="translate(-7872 477)">
<g id="Trash">
<use xlink:href="#path0_fill" transform="translate(7872 -477)" fill="#FFFFFF"/>
</g>
</g>
<defs>
<path id="path0_fill" fill-rule="evenodd" d="M 5.83333 7.5C 5.37333 7.5 5 7.87333 5 8.33333L 5 15C 5 15.46 5.37333 15.8333 5.83333 15.8333C 6.29333 15.8333 6.66667 15.46 6.66667 15L 6.66667 8.33333C 6.66667 7.87333 6.29333 7.5 5.83333 7.5ZM 13.3335 8.33333L 13.3335 15C 13.3335 15.46 13.7068 15.8333 14.1668 15.8333C 14.6268 15.8333 15.0002 15.46 15.0002 15L 15.0002 8.33333C 15.0002 7.87333 14.6268 7.5 14.1668 7.5C 13.7068 7.5 13.3335 7.87333 13.3335 8.33333ZM 9.99984 7.5C 9.53984 7.5 9.1665 7.87333 9.1665 8.33333L 9.1665 15C 9.1665 15.46 9.53984 15.8333 9.99984 15.8333C 10.4598 15.8333 10.8332 15.46 10.8332 15L 10.8332 8.33333C 10.8332 7.87333 10.4598 7.5 9.99984 7.5ZM 16.6668 17.5C 16.6668 17.96 16.2935 18.3333 15.8335 18.3333L 4.16683 18.3417L 4.16683 18.3425C 3.70683 18.3425 3.3335 17.9692 3.3335 17.5092L 3.3335 5L 16.6668 5L 16.6668 17.5ZM 6.6665 2.49999C 6.6665 2.03999 7.03984 1.66666 7.49984 1.66666L 12.4998 1.66666C 12.9598 1.66666 13.3332 2.03999 13.3332 2.49999L 13.3332 3.33332L 6.6665 3.33332L 6.6665 2.49999ZM 19.2308 3.33333L 15 3.33333L 15 1.66667C 15 0.8325 14.1433 0 13.3333 0L 6.66667 0C 5.845 0 5 0.795833 5 1.66667L 5 3.33333L 0.769167 3.33333C 0.344167 3.33333 0 3.70667 0 4.16667C 0 4.62667 0.344167 5 0.769167 5L 1.66667 5L 1.66667 18.3425C 1.66667 19.1508 2.53167 20 3.33333 20L 16.6667 20C 17.5 20 18.3333 19.1667 18.3333 18.3425L 18.3333 5L 19.2308 5C 19.6558 5 20 4.62667 20 4.16667C 20 3.70667 19.6558 3.33333 19.2308 3.33333Z"/>
</defs>
</svg>
