<svg width="84" height="84" viewBox="0 0 84 84" version="1.1" xmlns="http://www.w3.org/2000/svg" xmlns:xlink="http://www.w3.org/1999/xlink">
<title>truck</title>
<desc>Created using Figma</desc>
<g id="Canvas" transform="translate(-6591 -2457)">
<g id="truck">
<g id="Rectangle 7 Copy 5" opacity="0.2">
<mask id="mask0_outline_out">
<rect id="mask0_outline_inv" fill="white" x="-2" y="-2" width="84" height="84" transform="translate(6593 2459)"/>
<use xlink:href="#path0_fill" fill="black" transform="translate(6593 2459)"/>
</mask>
<g mask="url(#mask0_outline_out)">
<use xlink:href="#path1_stroke_2x" transform="translate(6593 2459)"/>
</g>
</g>
<g id="box">
<g id="Shape">
<use xlink:href="#path2_fill" transform="translate(6599.53 2479.04)"/>
</g>
</g>
</g>
</g>
<defs>
<path id="path0_fill" fill-rule="evenodd" d="M 1.39833 5.18012C 1.65055 3.15292 3.26417 1.68395 5.29769 1.48909C 10.8984 0.952418 23.2038 2.05694e-15 40 0C 56.41 0 68.5333 0.909122 74.3054 1.45143C 76.5363 1.66104 78.2816 3.37954 78.5129 5.60838C 79.0846 11.1179 80 22.6485 80 40C 80 57.6129 79.0568 69.2281 78.4873 74.6365C 78.2646 76.7514 76.6682 78.3919 74.5544 78.625C 69.5955 79.172 58.9579 80 40 80C 20.544 80 9.85121 79.1279 5.0664 78.5825C 3.14832 78.3639 1.67061 76.9575 1.42637 75.0425C 0.852921 70.5463 0 60.4257 0 40C 1.23048e-15 19.9047 0.825555 9.78377 1.39833 5.18012Z"/>
<path id="path1_stroke_2x" d="M 5.29769 1.48909L 5.10691 -0.501788L 5.29769 1.48909ZM 74.3054 1.45143L 74.1183 3.44266L 74.3054 1.45143ZM 40 80L 40 82L 40 80ZM 5.0664 78.5825L 4.83989 80.5696L 5.0664 78.5825ZM 78.5129 5.60838L 80.5022 5.40194L 78.5129 5.60838ZM 74.5544 78.625L 74.7737 80.613L 74.5544 78.625ZM 5.48846 3.47997C 11.0709 2.94496 23.2811 1.99851 40 2L 40 -2C 23.1266 -1.99851 10.7258 -1.04012 5.10691 -0.501788L 5.48846 3.47997ZM 40 2C 56.3351 1.9986 68.365 2.90203 74.1183 3.44266L 74.4924 -0.539802C 68.7017 -1.08378 56.4848 -1.9986 40 -2L 40 2ZM 76.5236 5.81481C 77.0929 11.3003 78.0016 22.7277 78 40L 82 40C 81.9984 22.5693 81.0763 10.9356 80.5022 5.40194L 76.5236 5.81481ZM 78 40C 78.0016 57.5319 77.0655 69.0425 76.4983 74.4271L 80.4763 74.846C 81.0482 69.4138 81.9984 57.6939 82 40L 78 40ZM 74.3352 76.6371C 69.4083 77.1808 58.8802 78.0015 40 78L 40 82C 59.0355 81.9985 69.7828 81.1632 74.7737 80.613L 74.3352 76.6371ZM 40 78C 20.6254 78.0017 10.0458 77.1374 5.29291 76.5954L 4.83989 80.5696C 9.65665 81.1184 20.4627 81.9983 40 82L 40 78ZM 3.4103 74.7894C 2.84181 70.3358 1.99823 60.3416 2 40L -2 40C -1.99823 60.5097 -1.13597 70.7568 -0.557563 75.2955L 3.4103 74.7894ZM 2 40C 1.99834 19.9861 2.81504 9.98858 3.38303 5.42705L -0.58637 4.93319C -1.16393 9.57896 -1.99834 19.8233 -2 40L 2 40ZM 5.10691 -0.501788C 2.20593 -0.223808 -0.210579 1.91279 -0.58637 4.93319L 3.38303 5.42705C 3.51167 4.39306 4.32241 3.59171 5.48846 3.47997L 5.10691 -0.501788ZM 74.1183 3.44266C 75.4056 3.56361 76.3913 4.54023 76.5236 5.81481L 80.5022 5.40194C 80.1719 2.21885 77.6671 -0.241531 74.4924 -0.539802L 74.1183 3.44266ZM 76.4983 74.4271C 76.3717 75.6289 75.4923 76.5094 74.3352 76.6371L 74.7737 80.613C 77.844 80.2743 80.1574 77.8739 80.4763 74.846L 76.4983 74.4271ZM 5.29291 76.5954C 4.25504 76.4771 3.53359 75.7561 3.4103 74.7894L -0.557563 75.2955C -0.192375 78.1588 2.04161 80.2507 4.83989 80.5696L 5.29291 76.5954Z"/>
<path id="path2_fill" fill-rule="evenodd" d="M 62.7319 32.971L 61.8949 32.971C 61.8779 32.282 61.7799 31.614 61.6129 30.971L 62.7319 30.971C 63.8939 30.971 64.4819 30.382 64.4819 29.221L 64.4819 24.586C 64.4699 23.842 63.9909 23.539 62.9009 23.031C 62.6759 22.925 62.4579 22.486 62.2559 22.378C 61.1259 21.772 57.3599 19.299 56.2389 18.346C 55.6409 17.838 53.7799 15.798 53.1289 14.214C 52.8599 13.564 51.6419 11.455 50.4639 9.415C 49.2109 7.246 47.9159 5.002 47.3199 3.769C 46.4649 2 46.0329 2 44.9869 2L 44.7199 2.001L 33.8319 2L 22.9899 30.971L 43.2869 30.971C 43.1209 31.614 43.0229 32.282 43.0059 32.971L 21.5529 32.971C 21.2259 32.971 20.9199 32.811 20.7329 32.542C 20.5459 32.274 20.5019 31.93 20.6159 31.623L 32.1989 0.652C 32.3439 0.26 32.7179 0 33.1359 0L 44.8549 0.001L 44.9869 0C 46.5359 0 47.8239 0.213 49.1209 2.899C 49.6839 4.066 50.9609 6.277 52.1959 8.415C 53.5179 10.703 54.6589 12.679 54.9779 13.454C 55.4669 14.64 57.0859 16.441 57.5339 16.822C 58.5379 17.676 62.1909 20.409 63.2029 20.952C 63.3729 21.044 63.5579 21.13 63.7479 21.219C 64.8229 21.721 66.4479 22.48 66.4819 24.57L 66.4819 29.221C 66.4819 31.499 65.0099 32.971 62.7319 32.971ZM 1 6.915C 0.448 6.915 0 6.467 0 5.915C 0 5.363 0.448 4.915 1 4.915L 27.918 4.915L 27.149 6.915L 1 6.915ZM 3.05908 12.915L 24.2261 12.915L 23.4571 14.915L 3.05908 14.915C 2.50708 14.915 2.05908 14.467 2.05908 13.915C 2.05908 13.363 2.50708 12.915 3.05908 12.915ZM 5.11792 20.853L 20.5579 20.853L 19.7879 22.853L 5.11792 22.853C 4.56592 22.853 4.11792 22.405 4.11792 21.853C 4.11792 21.3 4.56592 20.853 5.11792 20.853ZM 33.3879 20.345C 33.3879 21.194 32.6999 21.882 31.8509 21.882C 31.0029 21.882 30.3149 21.194 30.3149 20.345C 30.3149 19.496 31.0029 18.808 31.8509 18.808C 32.6999 18.808 33.3879 19.496 33.3879 20.345ZM 35.3721 4.57C 35.5131 4.171 35.8911 3.903 36.3151 3.903L 44.2691 3.903C 44.6441 3.903 44.9881 4.112 45.1591 4.446L 50.3021 14.461C 50.4631 14.773 50.4471 15.146 50.2631 15.443C 50.0811 15.739 49.7591 15.918 49.4131 15.918C 49.4091 15.918 49.4061 15.918 49.4031 15.918L 32.8391 15.946C 32.5161 15.943 32.2151 15.784 32.0301 15.519C 31.8451 15.255 31.7991 14.918 31.9071 14.613L 35.3721 4.57ZM 47.7661 13.901L 43.6591 5.903L 37.0231 5.903L 34.2581 13.96L 47.7661 13.901ZM 52.804 25.726C 56.521 25.726 59.535 28.74 59.535 32.457C 59.535 36.174 56.521 39.188 52.804 39.188C 49.087 39.188 46.073 36.174 46.073 32.457C 46.073 28.74 49.087 25.726 52.804 25.726ZM 52.802 36.821C 55.211 36.821 57.164 34.868 57.164 32.458C 57.164 30.049 55.211 28.096 52.802 28.096C 50.392 28.096 48.439 30.049 48.439 32.458C 48.439 34.868 50.392 36.821 52.802 36.821Z"/>
</defs>
</svg>
